<svg width="25" height="20" viewBox="0 0 25 20" fill="none" xmlns="http://www.w3.org/2000/svg">
<path d="M25 2.36559C24.0625 2.76498 23.0938 3.04147 22.0625 3.16436C23.125 2.54992 23.9375 1.56682 24.3125 0.368664C23.3125 0.952381 22.2188 1.35177 21.0625 1.59754C20.125 0.61444 18.7812 0 17.3125 0C14.4688 0 12.1875 2.27343 12.1875 5.0384C12.1875 5.43779 12.2188 5.80645 12.3125 6.17512C8.0625 5.99078 4.3125 3.96313 1.78125 0.921659C-0.0312498 4.11674 2 6.75883 3.34375 7.64977C2.53125 7.64977 1.71875 7.404 1.03125 7.03533C1.03125 9.52381 2.8125 11.5822 5.125 12.043C4.625 12.1966 3.5 12.2888 2.8125 12.1352C3.46875 14.1321 5.375 15.6068 7.59375 15.6375C5.84375 16.9892 3.28125 18.0645 0 17.7266C2.28125 19.1705 4.96875 20 7.875 20C17.3125 20 22.4375 12.3195 22.4375 5.68356C22.4375 5.46851 22.4375 5.25346 22.4062 5.0384C23.4688 4.27035 24.3438 3.37942 25 2.36559Z" fill="white"/>
</svg>
