<svg width="39" height="39" viewBox="0 0 39 39" fill="none" xmlns="http://www.w3.org/2000/svg">
<path d="M27.2865 5.77001H25.6507C25.4941 5.43905 25.3117 5.12263 25.1045 4.82236L25.9219 3.40655C26.1907 2.94099 26.0312 2.34571 25.5657 2.07697L22.1941 0.130401C21.9705 0.00128956 21.7047 -0.0335972 21.4555 0.0331294C21.2062 0.100008 20.9936 0.263092 20.8646 0.486657L20.0485 1.90018C19.6802 1.86887 19.3199 1.86887 18.9516 1.90018L18.1355 0.486657C18.0064 0.263092 17.7938 0.100008 17.5445 0.0331294C17.2953 -0.0335972 17.0295 0.00128956 16.806 0.130401L13.4344 2.07705C12.9688 2.34578 12.8093 2.94107 13.0781 3.40663L13.8955 4.82251C13.6883 5.12271 13.506 5.4392 13.3494 5.77009H11.7136C11.176 5.77009 10.7402 6.20587 10.7402 6.74341V10.6366C10.7402 11.1742 11.176 11.61 11.7136 11.61H13.3494C13.506 11.9408 13.6883 12.2573 13.8955 12.5575L13.0781 13.9733C12.8093 14.4389 12.9688 15.0342 13.4344 15.3029L16.806 17.2496C17.0295 17.3787 17.2951 17.4135 17.5445 17.3468C17.7938 17.28 18.0064 17.1169 18.1355 16.8933L18.9516 15.4796C19.3199 15.5111 19.6802 15.5111 20.0485 15.4796L20.8646 16.8932C20.9937 17.1167 21.2063 17.2798 21.4555 17.3467C21.5384 17.3689 21.6231 17.3798 21.7075 17.3798C21.8769 17.3798 22.0449 17.3356 22.1941 17.2494L25.5657 15.3028C26.0313 15.034 26.1908 14.4388 25.922 13.9732L25.1046 12.5574C25.3118 12.2572 25.4941 11.9408 25.6508 11.6098H27.2865C27.8241 11.6098 28.2599 11.174 28.2599 10.6365V9.66316V7.71651V6.74334C28.2598 6.20579 27.824 5.77001 27.2865 5.77001ZM19.5 11.5464C17.9249 11.5464 16.6436 10.2651 16.6436 8.68991C16.6436 7.11475 17.9249 5.83347 19.5 5.83347C21.0752 5.83347 22.3565 7.11475 22.3565 8.68991C22.3565 10.2651 21.0752 11.5464 19.5 11.5464Z" fill="url(#paint0_linear_18_344)"/>
<path d="M6.09376 12.3322V9.83203H8.45509V7.54688H4.95118C4.32017 7.54688 3.8086 8.05845 3.8086 8.68945V12.3322C2.9228 12.5405 2.10966 12.9899 1.45016 13.6495C0.514999 14.5845 0 15.8279 0 17.1504C0 18.4729 0.514999 19.7163 1.45016 20.6514C1.8963 21.0975 2.61978 21.0975 3.066 20.6514C3.51222 20.2053 3.51222 19.4818 3.066 19.0356C2.02656 17.9961 2.02656 16.3047 3.066 15.2652C3.56957 14.7617 4.23905 14.4844 4.95118 14.4844C5.66331 14.4844 6.33279 14.7617 6.83636 15.2652C7.87581 16.3047 7.87581 17.9961 6.83636 19.0356C6.39015 19.4817 6.39015 20.2052 6.83636 20.6514C7.05947 20.8745 7.3519 20.9861 7.64424 20.9861C7.93659 20.9861 8.22909 20.8745 8.45212 20.6514C9.38729 19.7163 9.90229 18.4729 9.90229 17.1504C9.90229 15.8279 9.38729 14.5845 8.45212 13.6494C7.7927 12.9899 6.97957 12.5405 6.09376 12.3322Z" fill="url(#paint1_linear_18_344)"/>
<path d="M37.5499 13.6495C36.8904 12.9899 36.0772 12.5406 35.1914 12.3322V8.68945C35.1914 8.05845 34.6798 7.54688 34.0488 7.54688H30.5449V9.83203H32.9063V12.3322C32.0205 12.5405 31.2073 12.9899 30.5478 13.6495C29.6127 14.5846 29.0977 15.828 29.0977 17.1505C29.0977 18.473 29.6127 19.7164 30.5478 20.6515C30.994 21.0976 31.7174 21.0976 32.1637 20.6515C32.6099 20.2053 32.6099 19.4819 32.1637 19.0356C31.1242 17.9962 31.1242 16.3047 32.1637 15.2653C32.6672 14.7618 33.3367 14.4845 34.0488 14.4845C34.761 14.4845 35.4304 14.7618 35.934 15.2653C36.9735 16.3047 36.9735 17.9962 35.934 19.0356C35.4878 19.4818 35.4878 20.2053 35.934 20.6515C36.1571 20.8746 36.4496 20.9862 36.7419 20.9862C37.0342 20.9862 37.3267 20.8746 37.5498 20.6515C38.4849 19.7164 38.9999 18.473 38.9999 17.1505C38.9999 15.828 38.485 14.5846 37.5499 13.6495Z" fill="url(#paint2_linear_18_344)"/>
<path d="M3.12305 39C4.8058 39 6.16993 37.6359 6.16993 35.9531C6.16993 34.2704 4.8058 32.9062 3.12305 32.9062C1.44031 32.9062 0.0761719 34.2704 0.0761719 35.9531C0.0761719 37.6359 1.44031 39 3.12305 39Z" fill="url(#paint3_linear_18_344)"/>
<path d="M19.5 39C21.1828 39 22.5469 37.6359 22.5469 35.9531C22.5469 34.2704 21.1828 32.9062 19.5 32.9062C17.8173 32.9062 16.4531 34.2704 16.4531 35.9531C16.4531 37.6359 17.8173 39 19.5 39Z" fill="url(#paint4_linear_18_344)"/>
<path d="M23.8721 32.9062C24.4763 33.7706 24.8321 34.8208 24.8321 35.9531C24.8321 37.0854 24.4763 38.1356 23.8721 39H31.5051C30.9009 38.1356 30.545 37.0854 30.545 35.9531C30.545 34.8208 30.9009 33.7706 31.5051 32.9062H23.8721Z" fill="url(#paint5_linear_18_344)"/>
<path d="M7.49512 32.9062C8.09931 33.7706 8.45519 34.8208 8.45519 35.9531C8.45519 37.0854 8.09931 38.1356 7.49512 39H15.1282C14.524 38.1356 14.1681 37.0854 14.1681 35.9531C14.1681 34.8208 14.524 33.7706 15.1282 32.9062H7.49512Z" fill="url(#paint6_linear_18_344)"/>
<path d="M35.877 39C37.5597 39 38.9238 37.6359 38.9238 35.9531C38.9238 34.2704 37.5597 32.9062 35.877 32.9062C34.1942 32.9062 32.8301 34.2704 32.8301 35.9531C32.8301 37.6359 34.1942 39 35.877 39Z" fill="url(#paint7_linear_18_344)"/>
<path d="M22.3565 23.7656H16.6436C16.0125 23.7656 15.501 24.2772 15.501 24.9082V30.6211H23.499V24.9082C23.499 24.2772 22.9875 23.7656 22.3565 23.7656Z" fill="url(#paint8_linear_18_344)"/>
<path d="M10.9307 23.7656H5.21778C4.58677 23.7656 4.0752 24.2772 4.0752 24.9082V30.6211H12.0733V24.9082C12.0733 24.2772 11.5617 23.7656 10.9307 23.7656Z" fill="url(#paint9_linear_18_344)"/>
<path d="M28.0693 23.7656C27.4383 23.7656 26.9268 24.2772 26.9268 24.9082V30.6211H34.9248V24.9082C34.9248 24.2772 34.4132 23.7656 33.7822 23.7656H28.0693Z" fill="url(#paint10_linear_18_344)"/>
<defs>
<linearGradient id="paint0_linear_18_344" x1="10.7402" y1="0" x2="30.5692" y2="14.1419" gradientUnits="userSpaceOnUse">
<stop stop-color="#0EA1EF"/>
<stop offset="1" stop-color="#064BCA"/>
</linearGradient>
<linearGradient id="paint1_linear_18_344" x1="0" y1="7.54688" x2="13.2952" y2="14.4777" gradientUnits="userSpaceOnUse">
<stop stop-color="#0EA1EF"/>
<stop offset="1" stop-color="#064BCA"/>
</linearGradient>
<linearGradient id="paint2_linear_18_344" x1="29.0977" y1="7.54688" x2="42.3928" y2="14.4777" gradientUnits="userSpaceOnUse">
<stop stop-color="#0EA1EF"/>
<stop offset="1" stop-color="#064BCA"/>
</linearGradient>
<linearGradient id="paint3_linear_18_344" x1="0.0761719" y1="32.9062" x2="7.01031" y2="37.8122" gradientUnits="userSpaceOnUse">
<stop stop-color="#0EA1EF"/>
<stop offset="1" stop-color="#064BCA"/>
</linearGradient>
<linearGradient id="paint4_linear_18_344" x1="16.4531" y1="32.9062" x2="23.3873" y2="37.8122" gradientUnits="userSpaceOnUse">
<stop stop-color="#0EA1EF"/>
<stop offset="1" stop-color="#064BCA"/>
</linearGradient>
<linearGradient id="paint5_linear_18_344" x1="23.8721" y1="32.9062" x2="31.1721" y2="39.3757" gradientUnits="userSpaceOnUse">
<stop stop-color="#0EA1EF"/>
<stop offset="1" stop-color="#064BCA"/>
</linearGradient>
<linearGradient id="paint6_linear_18_344" x1="7.49512" y1="32.9062" x2="14.7952" y2="39.3757" gradientUnits="userSpaceOnUse">
<stop stop-color="#0EA1EF"/>
<stop offset="1" stop-color="#064BCA"/>
</linearGradient>
<linearGradient id="paint7_linear_18_344" x1="32.8301" y1="32.9062" x2="39.7642" y2="37.8122" gradientUnits="userSpaceOnUse">
<stop stop-color="#0EA1EF"/>
<stop offset="1" stop-color="#064BCA"/>
</linearGradient>
<linearGradient id="paint8_linear_18_344" x1="15.501" y1="23.7656" x2="23.6236" y2="30.4702" gradientUnits="userSpaceOnUse">
<stop stop-color="#0EA1EF"/>
<stop offset="1" stop-color="#064BCA"/>
</linearGradient>
<linearGradient id="paint9_linear_18_344" x1="4.0752" y1="23.7656" x2="12.1978" y2="30.4702" gradientUnits="userSpaceOnUse">
<stop stop-color="#0EA1EF"/>
<stop offset="1" stop-color="#064BCA"/>
</linearGradient>
<linearGradient id="paint10_linear_18_344" x1="26.9268" y1="23.7656" x2="35.0494" y2="30.4702" gradientUnits="userSpaceOnUse">
<stop stop-color="#0EA1EF"/>
<stop offset="1" stop-color="#064BCA"/>
</linearGradient>
</defs>
</svg>
