<svg width="37" height="44" viewBox="0 0 37 44" fill="none" xmlns="http://www.w3.org/2000/svg">
<path d="M34.4479 20.4944L35.0407 19.2812C30.5225 20.7562 26.3287 22.9961 22.5645 25.9568H25.8142C29.4704 25.9568 32.8126 23.842 34.4479 20.4944Z" fill="url(#paint0_linear_18_358)"/>
<path d="M31.0347 18.3223C27.3785 18.3223 24.0363 20.437 22.401 23.7847L22.0938 24.4137C25.4747 21.8234 29.1779 19.7781 33.142 18.3223H31.0347Z" fill="url(#paint1_linear_18_358)"/>
<path d="M5.68058 18.3223H3.57324C7.53662 19.7781 11.2398 21.8226 14.6215 24.4137L14.3143 23.7854C12.6789 20.437 9.33673 18.3223 5.68058 18.3223Z" fill="url(#paint2_linear_18_358)"/>
<path d="M2.26689 20.4941C3.9022 23.8418 7.24442 25.9565 10.9006 25.9565H14.1511C10.3868 22.9959 6.19224 20.756 1.6748 19.2803L2.26689 20.4941Z" fill="url(#paint3_linear_18_358)"/>
<path d="M0 35.3758L5.18334 44.0004L7.63296 42.4957L2.44961 33.8711L0 35.3758Z" fill="url(#paint4_linear_18_358)"/>
<path d="M35.5084 27.4835C35.1878 27.4835 34.8701 27.5919 34.6136 27.7889L26.5198 34.004C26.3199 35.4912 25.0836 36.6447 23.5772 36.6447H13.8832V35.1179H23.5772C24.3998 35.1179 25.0686 34.4331 25.0686 33.591C25.0686 32.7489 24.3998 32.0641 23.5772 32.0641H20.6608C20.1344 32.0641 19.6146 32.0122 19.1031 31.9183V28.6286L21.798 26.559L22.364 26.1085C22.4296 26.0559 22.4982 26.0085 22.5646 25.9566H21.3402L22.0933 24.4137C21.8785 24.5778 21.6601 24.7351 21.4483 24.9038L19.1031 26.7147V22.767C19.7324 22.5356 20.2321 22.0234 20.4573 21.376H16.2582C16.4834 22.0226 16.9823 22.5356 17.6124 22.767V26.72L15.8332 25.3543L15.2679 24.9038C15.0562 24.7351 14.8369 24.5778 14.6222 24.4129L15.3746 25.9566H14.1509C14.2173 26.0085 14.2851 26.0566 14.3515 26.1085L17.6117 28.6271V31.4992C17.5349 31.4702 17.4558 31.448 17.379 31.4167C15.954 30.8334 14.4529 30.5372 12.9168 30.5372C10.3344 30.5372 7.77443 31.4114 5.70811 32.9978L4.31738 34.0651L8.239 40.5894L8.456 40.4787C9.92204 39.7283 11.6468 39.5115 13.2479 39.8748L18.3641 41.0383C20.5139 41.5307 22.8621 41.0116 24.6287 39.655L36.105 30.8426C36.665 30.412 36.9998 29.7272 36.9998 29.0104C36.9998 28.1683 36.3309 27.4835 35.5084 27.4835Z" fill="url(#paint5_linear_18_358)"/>
<path d="M15.1755 16.7956H21.5385C22.0329 15.3245 22.8353 13.9396 23.8807 12.7609C25.1275 11.3546 25.8143 9.53382 25.8143 7.63438C25.8143 3.42478 22.4691 0 18.3574 0C14.2456 0 10.9004 3.42478 10.9004 7.63438C10.9004 9.53382 11.5872 11.3546 12.8332 12.7609C13.8787 13.9396 14.6818 15.3245 15.1755 16.7956ZM18.3574 8.39782C17.124 8.39782 16.1203 7.37023 16.1203 6.10751C16.1203 5.11351 16.7459 4.27373 17.6117 3.95766V3.05375H19.1031V3.95766C19.9688 4.27373 20.5945 5.11351 20.5945 6.10751H19.1031C19.1031 5.68609 18.7682 5.34407 18.3574 5.34407C17.9465 5.34407 17.6117 5.68609 17.6117 6.10751C17.6117 6.52892 17.9465 6.87094 18.3574 6.87094C19.5907 6.87094 20.5945 7.89853 20.5945 9.16126C20.5945 10.1553 19.9688 10.995 19.1031 11.3111V12.215H17.6117V11.3111C16.7459 10.995 16.1203 10.1553 16.1203 9.16126H17.6117C17.6117 9.58268 17.9465 9.9247 18.3574 9.9247C18.7682 9.9247 19.1031 9.58268 19.1031 9.16126C19.1031 8.73984 18.7682 8.39782 18.3574 8.39782Z" fill="url(#paint6_linear_18_358)"/>
<path d="M15.375 18.3223H21.3406V19.8491H15.375V18.3223Z" fill="url(#paint7_linear_18_358)"/>
<defs>
<linearGradient id="paint0_linear_18_358" x1="22.5645" y1="19.2812" x2="30.3154" y2="29.5303" gradientUnits="userSpaceOnUse">
<stop stop-color="#0EA1EF"/>
<stop offset="1" stop-color="#064BCA"/>
</linearGradient>
<linearGradient id="paint1_linear_18_358" x1="22.0938" y1="18.3223" x2="29.2216" y2="27.4689" gradientUnits="userSpaceOnUse">
<stop stop-color="#0EA1EF"/>
<stop offset="1" stop-color="#064BCA"/>
</linearGradient>
<linearGradient id="paint2_linear_18_358" x1="3.57324" y1="18.3223" x2="10.7011" y2="27.4689" gradientUnits="userSpaceOnUse">
<stop stop-color="#0EA1EF"/>
<stop offset="1" stop-color="#064BCA"/>
</linearGradient>
<linearGradient id="paint3_linear_18_358" x1="1.6748" y1="19.2803" x2="9.42688" y2="29.5297" gradientUnits="userSpaceOnUse">
<stop stop-color="#0EA1EF"/>
<stop offset="1" stop-color="#064BCA"/>
</linearGradient>
<linearGradient id="paint4_linear_18_358" x1="0" y1="33.8711" x2="10.1487" y2="39.2818" gradientUnits="userSpaceOnUse">
<stop stop-color="#0EA1EF"/>
<stop offset="1" stop-color="#064BCA"/>
</linearGradient>
<linearGradient id="paint5_linear_18_358" x1="4.31738" y1="21.376" x2="27.987" y2="48.9557" gradientUnits="userSpaceOnUse">
<stop stop-color="#0EA1EF"/>
<stop offset="1" stop-color="#064BCA"/>
</linearGradient>
<linearGradient id="paint6_linear_18_358" x1="10.9004" y1="0" x2="29.1594" y2="11.4711" gradientUnits="userSpaceOnUse">
<stop stop-color="#0EA1EF"/>
<stop offset="1" stop-color="#064BCA"/>
</linearGradient>
<linearGradient id="paint7_linear_18_358" x1="15.375" y1="18.3223" x2="16.5538" y2="21.5808" gradientUnits="userSpaceOnUse">
<stop stop-color="#0EA1EF"/>
<stop offset="1" stop-color="#064BCA"/>
</linearGradient>
</defs>
</svg>
