<svg width="233" height="304" viewBox="0 0 233 304" fill="none" xmlns="http://www.w3.org/2000/svg">
<g opacity="0.4">
<rect x="222.234" y="53.876" width="111.429" height="111.429" rx="8" transform="rotate(45 222.234 53.876)" fill="url(#paint0_linear_18_431)"/>
<rect x="78.793" y="81.8789" width="111.429" height="111.429" rx="8" transform="rotate(45 78.793 81.8789)" fill="url(#paint1_linear_18_431)"/>
<rect x="134.503" y="7.47859" width="82.1278" height="82.1278" rx="7.5" transform="rotate(45 134.503 7.47859)" fill="#CFEAFB" stroke="black"/>
<rect x="141.127" y="191.7" width="78.4366" height="78.4366" rx="7.5" transform="rotate(45 141.127 191.7)" fill="#CFEAFB" stroke="black"/>
<rect x="181.131" y="152.769" width="45.3346" height="45.3346" rx="7.5" transform="rotate(45 181.131 152.769)" fill="#CFEAFB" stroke="black"/>
<rect x="171.28" width="46.3346" height="46.3346" rx="8" transform="rotate(45 171.28 0)" fill="url(#paint2_linear_18_431)"/>
<rect x="203.909" y="211.162" width="46.3346" height="46.3346" rx="8" transform="rotate(45 203.909 211.162)" fill="url(#paint3_linear_18_431)"/>
</g>
<defs>
<linearGradient id="paint0_linear_18_431" x1="222.234" y1="53.876" x2="349.031" y2="143.585" gradientUnits="userSpaceOnUse">
<stop stop-color="#0EA1EF"/>
<stop offset="1" stop-color="#064BCA"/>
</linearGradient>
<linearGradient id="paint1_linear_18_431" x1="78.793" y1="81.8789" x2="205.59" y2="171.588" gradientUnits="userSpaceOnUse">
<stop stop-color="#0EA1EF"/>
<stop offset="1" stop-color="#064BCA"/>
</linearGradient>
<linearGradient id="paint2_linear_18_431" x1="171.28" y1="0" x2="224.005" y2="37.3029" gradientUnits="userSpaceOnUse">
<stop stop-color="#0EA1EF"/>
<stop offset="1" stop-color="#064BCA"/>
</linearGradient>
<linearGradient id="paint3_linear_18_431" x1="203.909" y1="211.162" x2="256.634" y2="248.465" gradientUnits="userSpaceOnUse">
<stop stop-color="#0EA1EF"/>
<stop offset="1" stop-color="#064BCA"/>
</linearGradient>
</defs>
</svg>
