<svg width="489" height="493" viewBox="0 0 489 493" fill="none" xmlns="http://www.w3.org/2000/svg">
<rect x="360.986" y="87.5137" width="181" height="181" rx="8" transform="rotate(45 360.986 87.5137)" fill="url(#paint0_linear_18_262)"/>
<rect x="127.986" y="133" width="181" height="181" rx="8" transform="rotate(45 127.986 133)" fill="url(#paint1_linear_18_262)"/>
<rect x="218.479" y="11.7071" width="134.028" height="134.028" rx="7.5" transform="rotate(45 218.479 11.7071)" fill="#CFEAFB" stroke="black"/>
<rect x="229.24" y="310.947" width="128.032" height="128.032" rx="7.5" transform="rotate(45 229.24 310.947)" fill="#CFEAFB" stroke="black"/>
<rect x="294.219" y="247.707" width="74.2634" height="74.2634" rx="7.5" transform="rotate(45 294.219 247.707)" fill="#CFEAFB" stroke="black"/>
<rect x="278.219" width="75.2634" height="75.2634" rx="8" transform="rotate(45 278.219 0)" fill="url(#paint2_linear_18_262)"/>
<rect x="331.219" y="343" width="75.2634" height="75.2634" rx="8" transform="rotate(45 331.219 343)" fill="url(#paint3_linear_18_262)"/>
<defs>
<linearGradient id="paint0_linear_18_262" x1="360.986" y1="87.5137" x2="566.948" y2="233.232" gradientUnits="userSpaceOnUse">
<stop stop-color="#0EA1EF"/>
<stop offset="1" stop-color="#064BCA"/>
</linearGradient>
<linearGradient id="paint1_linear_18_262" x1="127.986" y1="133" x2="333.948" y2="278.719" gradientUnits="userSpaceOnUse">
<stop stop-color="#0EA1EF"/>
<stop offset="1" stop-color="#064BCA"/>
</linearGradient>
<linearGradient id="paint2_linear_18_262" x1="278.219" y1="0" x2="363.862" y2="60.5928" gradientUnits="userSpaceOnUse">
<stop stop-color="#0EA1EF"/>
<stop offset="1" stop-color="#064BCA"/>
</linearGradient>
<linearGradient id="paint3_linear_18_262" x1="331.219" y1="343" x2="416.862" y2="403.593" gradientUnits="userSpaceOnUse">
<stop stop-color="#0EA1EF"/>
<stop offset="1" stop-color="#064BCA"/>
</linearGradient>
</defs>
</svg>
