<svg width="1036" height="171" viewBox="0 0 1036 171" fill="none" xmlns="http://www.w3.org/2000/svg">
<path d="M369.078 1.2H386.518L404.598 58H388.758L385.318 46.88H370.198L366.838 58H350.918L369.078 1.2ZM382.838 36.48L377.798 16.48L372.518 36.48H382.838ZM459.264 19.76C459.264 19.76 458.811 19.4933 457.904 18.96C456.998 18.4267 455.798 17.84 454.304 17.2C452.811 16.5067 451.184 15.8933 449.424 15.36C447.664 14.8267 445.931 14.56 444.224 14.56C442.891 14.56 441.798 14.7733 440.944 15.2C440.091 15.6267 439.664 16.3467 439.664 17.36C439.664 18.32 440.091 19.0933 440.944 19.68C441.798 20.2667 442.998 20.8 444.544 21.28C446.144 21.76 448.038 22.3467 450.224 23.04C453.744 24.1067 456.784 25.3333 459.344 26.72C461.904 28.1067 463.878 29.8933 465.264 32.08C466.651 34.2133 467.344 37.0667 467.344 40.64C467.344 44.0533 466.731 46.9333 465.504 49.28C464.278 51.5733 462.624 53.4133 460.544 54.8C458.464 56.1867 456.144 57.2 453.584 57.84C451.024 58.4267 448.411 58.72 445.744 58.72C443.024 58.72 440.171 58.4533 437.184 57.92C434.251 57.3333 431.398 56.56 428.624 55.6C425.851 54.5867 423.318 53.4133 421.024 52.08L427.744 38.4C427.744 38.4 428.278 38.72 429.344 39.36C430.411 40 431.824 40.72 433.584 41.52C435.344 42.32 437.291 43.04 439.424 43.68C441.611 44.32 443.798 44.64 445.984 44.64C447.691 44.64 448.864 44.4267 449.504 44C450.198 43.52 450.544 42.9067 450.544 42.16C450.544 41.04 449.958 40.1867 448.784 39.6C447.611 38.96 446.064 38.3733 444.144 37.84C442.278 37.2533 440.198 36.5867 437.904 35.84C434.598 34.72 431.878 33.4667 429.744 32.08C427.611 30.64 426.038 28.96 425.024 27.04C424.011 25.0667 423.504 22.6933 423.504 19.92C423.504 15.7067 424.491 12.1867 426.464 9.36C428.438 6.53333 431.024 4.4 434.224 2.96C437.478 1.46666 440.971 0.719998 444.704 0.719998C447.478 0.719998 450.144 1.06667 452.704 1.76C455.318 2.4 457.744 3.2 459.984 4.16C462.278 5.12 464.278 6.02666 465.984 6.88L459.264 19.76ZM501.548 55.68C500.161 56.2667 498.668 56.8267 497.068 57.36C495.521 57.84 493.921 58.2133 492.268 58.48C490.668 58.7467 489.094 58.88 487.548 58.88C485.254 58.88 483.148 58.5067 481.228 57.76C479.308 56.96 477.761 55.68 476.588 53.92C475.468 52.1067 474.908 49.68 474.908 46.64V27.36H469.708V15.92H474.908V2.72H490.108V15.92H498.348V27.36H490.108V41.28C490.108 42.6667 490.401 43.6533 490.988 44.24C491.574 44.7733 492.374 45.04 493.388 45.04C494.134 45.04 494.988 44.9067 495.948 44.64C496.908 44.3733 497.868 44.0533 498.828 43.68L501.548 55.68ZM534.416 28.88C531.482 28.88 528.816 29.2 526.416 29.84C524.016 30.48 522.229 31.5467 521.056 33.04V58H505.856V15.92H519.776V23.92C521.269 21.0933 523.136 18.9333 525.376 17.44C527.616 15.8933 529.989 15.12 532.496 15.12C533.082 15.12 533.482 15.12 533.696 15.12C533.962 15.12 534.202 15.1467 534.416 15.2V28.88ZM559.857 58.8C556.124 58.8 552.817 58.2133 549.937 57.04C547.057 55.8667 544.63 54.2667 542.657 52.24C540.737 50.16 539.27 47.8133 538.257 45.2C537.297 42.5867 536.817 39.84 536.817 36.96C536.817 34.08 537.297 31.3333 538.257 28.72C539.27 26.0533 540.737 23.7067 542.657 21.68C544.63 19.6533 547.057 18.0533 549.937 16.88C552.817 15.7067 556.124 15.12 559.857 15.12C563.644 15.12 566.95 15.7067 569.777 16.88C572.657 18.0533 575.057 19.6533 576.977 21.68C578.95 23.7067 580.417 26.0533 581.377 28.72C582.39 31.3333 582.897 34.08 582.897 36.96C582.897 39.84 582.39 42.5867 581.377 45.2C580.417 47.8133 578.95 50.16 576.977 52.24C575.057 54.2667 572.657 55.8667 569.777 57.04C566.95 58.2133 563.644 58.8 559.857 58.8ZM552.417 36.96C552.417 38.8267 552.737 40.4533 553.377 41.84C554.017 43.1733 554.897 44.2133 556.017 44.96C557.137 45.6533 558.417 46 559.857 46C561.297 46 562.577 45.6533 563.697 44.96C564.817 44.2133 565.697 43.1733 566.337 41.84C566.977 40.4533 567.297 38.8267 567.297 36.96C567.297 35.0933 566.977 33.4933 566.337 32.16C565.697 30.7733 564.817 29.7333 563.697 29.04C562.577 28.2933 561.297 27.92 559.857 27.92C558.417 27.92 557.137 28.2933 556.017 29.04C554.897 29.7333 554.017 30.7733 553.377 32.16C552.737 33.4933 552.417 35.0933 552.417 36.96ZM630.598 58H615.398V34.32C615.398 32.24 614.918 30.7467 613.958 29.84C613.051 28.88 611.984 28.4 610.758 28.4C609.904 28.4 608.998 28.6667 608.038 29.2C607.078 29.68 606.198 30.3733 605.398 31.28C604.598 32.1867 603.958 33.2267 603.478 34.4V58H588.278V15.92H601.958V22.16C602.971 20.6133 604.251 19.3333 605.798 18.32C607.344 17.2533 609.131 16.4533 611.158 15.92C613.184 15.3867 615.398 15.12 617.798 15.12C620.678 15.12 622.971 15.6267 624.678 16.64C626.384 17.6533 627.664 18.96 628.517 20.56C629.371 22.16 629.931 23.84 630.198 25.6C630.464 27.3067 630.598 28.88 630.598 30.32V58ZM654.125 58C651.405 58 648.898 57.4667 646.605 56.4C644.365 55.3333 642.445 53.84 640.845 51.92C639.245 50 637.992 47.76 637.085 45.2C636.232 42.64 635.805 39.8667 635.805 36.88C635.805 33.7333 636.285 30.8533 637.245 28.24C638.205 25.5733 639.538 23.2533 641.245 21.28C643.005 19.3067 645.085 17.7867 647.485 16.72C649.885 15.6533 652.525 15.12 655.405 15.12C658.392 15.12 661.032 15.7333 663.325 16.96C665.672 18.1333 667.512 19.8667 668.845 22.16V15.92H682.045V54.16C682.045 58.5333 680.978 62.3467 678.845 65.6C676.712 68.8533 673.725 71.36 669.885 73.12C666.045 74.9333 661.565 75.84 656.445 75.84C652.018 75.84 648.125 75.1467 644.765 73.76C641.458 72.3733 638.525 70.3733 635.965 67.76L643.965 59.44C645.512 60.88 647.352 62.08 649.485 63.04C651.672 64.0533 653.992 64.56 656.445 64.56C658.312 64.56 660.018 64.2133 661.565 63.52C663.165 62.8267 664.445 61.7067 665.405 60.16C666.365 58.6667 666.845 56.6667 666.845 54.16V51.44C665.672 53.6267 663.912 55.28 661.565 56.4C659.272 57.4667 656.792 58 654.125 58ZM659.565 46C660.312 46 661.005 45.92 661.645 45.76C662.338 45.5467 662.978 45.28 663.565 44.96C664.152 44.5867 664.712 44.1333 665.245 43.6C665.832 43.0133 666.365 42.3733 666.845 41.68V34.16C666.365 32.88 665.698 31.7867 664.845 30.88C663.992 29.92 663.058 29.2 662.045 28.72C661.032 28.1867 659.992 27.92 658.925 27.92C657.858 27.92 656.845 28.16 655.885 28.64C654.978 29.12 654.178 29.8133 653.485 30.72C652.792 31.5733 652.258 32.56 651.885 33.68C651.512 34.8 651.325 36 651.325 37.28C651.325 38.56 651.512 39.7333 651.885 40.8C652.312 41.8667 652.898 42.8 653.645 43.6C654.392 44.3467 655.272 44.9333 656.285 45.36C657.298 45.7867 658.392 46 659.565 46ZM38.6784 113.76C38.6784 113.76 38.2251 113.493 37.3184 112.96C36.4118 112.427 35.2118 111.84 33.7184 111.2C32.2251 110.507 30.5984 109.893 28.8384 109.36C27.0784 108.827 25.3451 108.56 23.6384 108.56C22.3051 108.56 21.2118 108.773 20.3584 109.2C19.5051 109.627 19.0784 110.347 19.0784 111.36C19.0784 112.32 19.5051 113.093 20.3584 113.68C21.2118 114.267 22.4118 114.8 23.9584 115.28C25.5584 115.76 27.4518 116.347 29.6384 117.04C33.1584 118.107 36.1984 119.333 38.7584 120.72C41.3184 122.107 43.2918 123.893 44.6784 126.08C46.0651 128.213 46.7584 131.067 46.7584 134.64C46.7584 138.053 46.1451 140.933 44.9184 143.28C43.6918 145.573 42.0384 147.413 39.9584 148.8C37.8784 150.187 35.5584 151.2 32.9984 151.84C30.4384 152.427 27.8251 152.72 25.1584 152.72C22.4384 152.72 19.5851 152.453 16.5984 151.92C13.6651 151.333 10.8118 150.56 8.03844 149.6C5.2651 148.587 2.73177 147.413 0.438438 146.08L7.15844 132.4C7.15844 132.4 7.69177 132.72 8.75844 133.36C9.8251 134 11.2384 134.72 12.9984 135.52C14.7584 136.32 16.7051 137.04 18.8384 137.68C21.0251 138.32 23.2118 138.64 25.3984 138.64C27.1051 138.64 28.2784 138.427 28.9184 138C29.6118 137.52 29.9584 136.907 29.9584 136.16C29.9584 135.04 29.3718 134.187 28.1984 133.6C27.0251 132.96 25.4784 132.373 23.5584 131.84C21.6918 131.253 19.6118 130.587 17.3184 129.84C14.0118 128.72 11.2918 127.467 9.15844 126.08C7.0251 124.64 5.45177 122.96 4.43844 121.04C3.4251 119.067 2.91844 116.693 2.91844 113.92C2.91844 109.707 3.9051 106.187 5.87844 103.36C7.85177 100.533 10.4384 98.4 13.6384 96.96C16.8918 95.4667 20.3851 94.72 24.1184 94.72C26.8918 94.72 29.5584 95.0667 32.1184 95.76C34.7318 96.4 37.1584 97.2 39.3984 98.16C41.6918 99.12 43.6918 100.027 45.3984 100.88L38.6784 113.76ZM80.9616 149.68C79.5749 150.267 78.0816 150.827 76.4816 151.36C74.9349 151.84 73.3349 152.213 71.6816 152.48C70.0816 152.747 68.5082 152.88 66.9616 152.88C64.6682 152.88 62.5616 152.507 60.6416 151.76C58.7216 150.96 57.1749 149.68 56.0016 147.92C54.8816 146.107 54.3216 143.68 54.3216 140.64V121.36H49.1216V109.92H54.3216V96.72H69.5216V109.92H77.7616V121.36H69.5216V135.28C69.5216 136.667 69.8149 137.653 70.4016 138.24C70.9882 138.773 71.7882 139.04 72.8016 139.04C73.5482 139.04 74.4016 138.907 75.3616 138.64C76.3216 138.373 77.2816 138.053 78.2416 137.68L80.9616 149.68ZM113.83 122.88C110.896 122.88 108.23 123.2 105.83 123.84C103.43 124.48 101.643 125.547 100.47 127.04V152H85.2697V109.92H99.1897V117.92C100.683 115.093 102.55 112.933 104.79 111.44C107.03 109.893 109.403 109.12 111.91 109.12C112.496 109.12 112.896 109.12 113.11 109.12C113.376 109.12 113.616 109.147 113.83 109.2V122.88ZM115.762 139.28C115.762 136.453 116.536 133.973 118.082 131.84C119.629 129.653 121.762 127.947 124.482 126.72C127.256 125.493 130.402 124.88 133.922 124.88C135.576 124.88 137.122 125.013 138.562 125.28C140.056 125.547 141.336 125.947 142.402 126.48V125.2C142.402 123.227 141.816 121.76 140.642 120.8C139.522 119.84 137.682 119.36 135.122 119.36C132.776 119.36 130.562 119.76 128.482 120.56C126.456 121.307 124.322 122.427 122.082 123.92L117.682 114.48C120.509 112.667 123.469 111.333 126.562 110.48C129.709 109.573 133.069 109.12 136.642 109.12C143.309 109.12 148.456 110.64 152.082 113.68C155.762 116.667 157.602 121.12 157.602 127.04V135.2C157.602 136.64 157.816 137.653 158.242 138.24C158.669 138.773 159.416 139.093 160.482 139.2V152C159.256 152.267 158.082 152.453 156.962 152.56C155.896 152.72 154.936 152.8 154.082 152.8C151.362 152.8 149.282 152.32 147.842 151.36C146.456 150.347 145.549 148.88 145.122 146.96L144.802 145.44C142.936 147.84 140.776 149.68 138.322 150.96C135.869 152.187 133.256 152.8 130.482 152.8C127.709 152.8 125.202 152.213 122.962 151.04C120.722 149.867 118.962 148.267 117.682 146.24C116.402 144.16 115.762 141.84 115.762 139.28ZM140.402 140.32C140.989 139.893 141.469 139.44 141.842 138.96C142.216 138.427 142.402 137.893 142.402 137.36V134.24C141.549 133.92 140.562 133.653 139.442 133.44C138.376 133.227 137.416 133.12 136.562 133.12C134.749 133.12 133.202 133.573 131.922 134.48C130.696 135.387 130.082 136.533 130.082 137.92C130.082 138.667 130.296 139.36 130.722 140C131.149 140.587 131.736 141.067 132.482 141.44C133.229 141.76 134.082 141.92 135.042 141.92C135.949 141.92 136.882 141.787 137.842 141.52C138.856 141.2 139.709 140.8 140.402 140.32ZM195.024 149.68C193.637 150.267 192.144 150.827 190.544 151.36C188.997 151.84 187.397 152.213 185.744 152.48C184.144 152.747 182.571 152.88 181.024 152.88C178.731 152.88 176.624 152.507 174.704 151.76C172.784 150.96 171.237 149.68 170.064 147.92C168.944 146.107 168.384 143.68 168.384 140.64V121.36H163.184V109.92H168.384V96.72H183.584V109.92H191.824V121.36H183.584V135.28C183.584 136.667 183.877 137.653 184.464 138.24C185.051 138.773 185.851 139.04 186.864 139.04C187.611 139.04 188.464 138.907 189.424 138.64C190.384 138.373 191.344 138.053 192.304 137.68L195.024 149.68ZM219.583 152.8C215.903 152.8 212.623 152.24 209.743 151.12C206.863 149.947 204.437 148.373 202.463 146.4C200.543 144.427 199.077 142.16 198.063 139.6C197.05 137.04 196.543 134.347 196.543 131.52C196.543 127.467 197.423 123.76 199.183 120.4C200.943 116.987 203.53 114.267 206.943 112.24C210.357 110.16 214.57 109.12 219.583 109.12C224.597 109.12 228.81 110.133 232.223 112.16C235.637 114.187 238.223 116.853 239.983 120.16C241.743 123.467 242.623 127.067 242.623 130.96C242.623 131.76 242.57 132.587 242.463 133.44C242.41 134.24 242.33 134.96 242.223 135.6H212.703C212.81 137.093 213.21 138.32 213.903 139.28C214.65 140.187 215.557 140.853 216.623 141.28C217.743 141.707 218.89 141.92 220.063 141.92C221.717 141.92 223.263 141.547 224.703 140.8C226.197 140.053 227.183 139.013 227.663 137.68L240.543 141.36C239.423 143.6 237.85 145.573 235.823 147.28C233.85 148.987 231.503 150.347 228.783 151.36C226.063 152.32 222.997 152.8 219.583 152.8ZM212.383 126.48H226.303C226.143 125.093 225.743 123.92 225.103 122.96C224.517 122 223.717 121.253 222.703 120.72C221.743 120.187 220.623 119.92 219.343 119.92C218.063 119.92 216.917 120.187 215.903 120.72C214.943 121.253 214.143 122 213.503 122.96C212.917 123.92 212.543 125.093 212.383 126.48ZM263.773 152C261.053 152 258.547 151.467 256.253 150.4C254.013 149.333 252.093 147.84 250.493 145.92C248.893 144 247.64 141.76 246.733 139.2C245.88 136.64 245.453 133.867 245.453 130.88C245.453 127.733 245.933 124.853 246.893 122.24C247.853 119.573 249.187 117.253 250.893 115.28C252.653 113.307 254.733 111.787 257.133 110.72C259.533 109.653 262.173 109.12 265.053 109.12C268.04 109.12 270.68 109.733 272.973 110.96C275.32 112.133 277.16 113.867 278.493 116.16V109.92H291.693V148.16C291.693 152.533 290.627 156.347 288.493 159.6C286.36 162.853 283.373 165.36 279.533 167.12C275.693 168.933 271.213 169.84 266.093 169.84C261.667 169.84 257.773 169.147 254.413 167.76C251.107 166.373 248.173 164.373 245.613 161.76L253.613 153.44C255.16 154.88 257 156.08 259.133 157.04C261.32 158.053 263.64 158.56 266.093 158.56C267.96 158.56 269.667 158.213 271.213 157.52C272.813 156.827 274.093 155.707 275.053 154.16C276.013 152.667 276.493 150.667 276.493 148.16V145.44C275.32 147.627 273.56 149.28 271.213 150.4C268.92 151.467 266.44 152 263.773 152ZM269.213 140C269.96 140 270.653 139.92 271.293 139.76C271.987 139.547 272.627 139.28 273.213 138.96C273.8 138.587 274.36 138.133 274.893 137.6C275.48 137.013 276.013 136.373 276.493 135.68V128.16C276.013 126.88 275.347 125.787 274.493 124.88C273.64 123.92 272.707 123.2 271.693 122.72C270.68 122.187 269.64 121.92 268.573 121.92C267.507 121.92 266.493 122.16 265.533 122.64C264.627 123.12 263.827 123.813 263.133 124.72C262.44 125.573 261.907 126.56 261.533 127.68C261.16 128.8 260.973 130 260.973 131.28C260.973 132.56 261.16 133.733 261.533 134.8C261.96 135.867 262.547 136.8 263.293 137.6C264.04 138.347 264.92 138.933 265.933 139.36C266.947 139.787 268.04 140 269.213 140ZM299.09 156.24C300.317 156.667 301.437 156.987 302.45 157.2C303.517 157.467 304.477 157.6 305.33 157.6C306.45 157.6 307.384 157.387 308.13 156.96C308.877 156.587 309.464 155.973 309.89 155.12C310.317 154.267 310.584 153.227 310.69 152L295.41 109.92H311.01L319.01 136.4L325.49 109.92H339.65L325.41 157.04C324.61 159.76 323.304 162.133 321.49 164.16C319.677 166.24 317.517 167.84 315.01 168.96C312.504 170.133 309.81 170.72 306.93 170.72C305.597 170.72 304.264 170.587 302.93 170.32C301.65 170.107 300.37 169.733 299.09 169.2V156.24ZM360.919 152V95.2H399.879V108.8H376.519V118.24H395.559V130.88H376.519V152H360.919ZM423.333 152.8C419.6 152.8 416.293 152.213 413.413 151.04C410.533 149.867 408.107 148.267 406.133 146.24C404.213 144.16 402.747 141.813 401.733 139.2C400.773 136.587 400.293 133.84 400.293 130.96C400.293 128.08 400.773 125.333 401.733 122.72C402.747 120.053 404.213 117.707 406.133 115.68C408.107 113.653 410.533 112.053 413.413 110.88C416.293 109.707 419.6 109.12 423.333 109.12C427.12 109.12 430.427 109.707 433.253 110.88C436.133 112.053 438.533 113.653 440.453 115.68C442.427 117.707 443.893 120.053 444.853 122.72C445.867 125.333 446.373 128.08 446.373 130.96C446.373 133.84 445.867 136.587 444.853 139.2C443.893 141.813 442.427 144.16 440.453 146.24C438.533 148.267 436.133 149.867 433.253 151.04C430.427 152.213 427.12 152.8 423.333 152.8ZM415.893 130.96C415.893 132.827 416.213 134.453 416.853 135.84C417.493 137.173 418.373 138.213 419.493 138.96C420.613 139.653 421.893 140 423.333 140C424.773 140 426.053 139.653 427.173 138.96C428.293 138.213 429.173 137.173 429.813 135.84C430.453 134.453 430.773 132.827 430.773 130.96C430.773 129.093 430.453 127.493 429.813 126.16C429.173 124.773 428.293 123.733 427.173 123.04C426.053 122.293 424.773 121.92 423.333 121.92C421.893 121.92 420.613 122.293 419.493 123.04C418.373 123.733 417.493 124.773 416.853 126.16C416.213 127.493 415.893 129.093 415.893 130.96ZM480.314 122.88C477.381 122.88 474.714 123.2 472.314 123.84C469.914 124.48 468.127 125.547 466.954 127.04V152H451.754V109.92H465.674V117.92C467.167 115.093 469.034 112.933 471.274 111.44C473.514 109.893 475.887 109.12 478.394 109.12C478.981 109.12 479.381 109.12 479.594 109.12C479.861 109.12 480.101 109.147 480.314 109.2V122.88ZM510.955 95.2L521.115 118.4L531.515 95.2H548.475L528.875 133.2V152H513.355V133.04L494.075 95.2H510.955ZM564.974 152.8C561.241 152.8 557.934 152.213 555.054 151.04C552.174 149.867 549.747 148.267 547.774 146.24C545.854 144.16 544.387 141.813 543.374 139.2C542.414 136.587 541.934 133.84 541.934 130.96C541.934 128.08 542.414 125.333 543.374 122.72C544.387 120.053 545.854 117.707 547.774 115.68C549.747 113.653 552.174 112.053 555.054 110.88C557.934 109.707 561.241 109.12 564.974 109.12C568.761 109.12 572.067 109.707 574.894 110.88C577.774 112.053 580.174 113.653 582.094 115.68C584.067 117.707 585.534 120.053 586.494 122.72C587.507 125.333 588.014 128.08 588.014 130.96C588.014 133.84 587.507 136.587 586.494 139.2C585.534 141.813 584.067 144.16 582.094 146.24C580.174 148.267 577.774 149.867 574.894 151.04C572.067 152.213 568.761 152.8 564.974 152.8ZM557.534 130.96C557.534 132.827 557.854 134.453 558.494 135.84C559.134 137.173 560.014 138.213 561.134 138.96C562.254 139.653 563.534 140 564.974 140C566.414 140 567.694 139.653 568.814 138.96C569.934 138.213 570.814 137.173 571.454 135.84C572.094 134.453 572.414 132.827 572.414 130.96C572.414 129.093 572.094 127.493 571.454 126.16C570.814 124.773 569.934 123.733 568.814 123.04C567.694 122.293 566.414 121.92 564.974 121.92C563.534 121.92 562.254 122.293 561.134 123.04C560.014 123.733 559.134 124.773 558.494 126.16C557.854 127.493 557.534 129.093 557.534 130.96ZM592.995 137.6V109.92H608.195V134.16C608.195 135.973 608.595 137.413 609.395 138.48C610.248 139.493 611.395 140 612.835 140C613.635 140 614.435 139.893 615.235 139.68C616.035 139.467 616.835 139.04 617.635 138.4C618.488 137.76 619.315 136.853 620.115 135.68V109.92H635.315V135.2C635.315 136.64 635.528 137.653 635.955 138.24C636.381 138.773 637.128 139.093 638.195 139.2V152C636.861 152.267 635.661 152.453 634.595 152.56C633.528 152.72 632.595 152.8 631.795 152.8C629.235 152.8 627.208 152.32 625.715 151.36C624.221 150.4 623.261 148.933 622.835 146.96L622.515 145.44C620.541 148.053 618.168 149.947 615.395 151.12C612.675 152.24 609.581 152.8 606.115 152.8C601.901 152.8 598.648 151.493 596.355 148.88C594.115 146.267 592.995 142.507 592.995 137.6ZM672.97 122.88C670.037 122.88 667.37 123.2 664.97 123.84C662.57 124.48 660.784 125.547 659.61 127.04V152H644.41V109.92H658.33V117.92C659.824 115.093 661.69 112.933 663.93 111.44C666.17 109.893 668.544 109.12 671.05 109.12C671.637 109.12 672.037 109.12 672.25 109.12C672.517 109.12 672.757 109.147 672.97 109.2V122.88ZM743.38 137.44C743.38 140.853 742.446 143.627 740.58 145.76C738.766 147.893 736.313 149.467 733.22 150.48C730.126 151.493 726.713 152 722.98 152H695.06V95.2H728.02C730.686 95.2 732.98 95.92 734.9 97.36C736.873 98.7467 738.366 100.56 739.38 102.8C740.446 105.04 740.98 107.36 740.98 109.76C740.98 112.373 740.286 114.907 738.9 117.36C737.566 119.813 735.54 121.653 732.82 122.88C736.073 123.84 738.633 125.52 740.5 127.92C742.42 130.32 743.38 133.493 743.38 137.44ZM727.54 134.24C727.54 133.28 727.353 132.453 726.98 131.76C726.66 131.013 726.206 130.427 725.62 130C725.033 129.573 724.34 129.36 723.54 129.36H710.66V138.88H722.98C723.833 138.88 724.606 138.693 725.3 138.32C725.993 137.947 726.526 137.413 726.9 136.72C727.326 136.027 727.54 135.2 727.54 134.24ZM710.66 108.48V117.2H721.3C721.993 117.2 722.66 117.093 723.3 116.88C723.94 116.613 724.473 116.16 724.9 115.52C725.326 114.88 725.54 113.973 725.54 112.8C725.54 111.733 725.353 110.907 724.98 110.32C724.66 109.68 724.206 109.227 723.62 108.96C723.086 108.64 722.473 108.48 721.78 108.48H710.66ZM748.463 137.6V109.92H763.663V134.16C763.663 135.973 764.063 137.413 764.863 138.48C765.717 139.493 766.863 140 768.303 140C769.103 140 769.903 139.893 770.703 139.68C771.503 139.467 772.303 139.04 773.103 138.4C773.957 137.76 774.783 136.853 775.583 135.68V109.92H790.783V135.2C790.783 136.64 790.997 137.653 791.423 138.24C791.85 138.773 792.597 139.093 793.663 139.2V152C792.33 152.267 791.13 152.453 790.063 152.56C788.997 152.72 788.063 152.8 787.263 152.8C784.703 152.8 782.677 152.32 781.183 151.36C779.69 150.4 778.73 148.933 778.303 146.96L777.983 145.44C776.01 148.053 773.637 149.947 770.863 151.12C768.143 152.24 765.05 152.8 761.583 152.8C757.37 152.8 754.117 151.493 751.823 148.88C749.583 146.267 748.463 142.507 748.463 137.6ZM816.759 152.8C813.079 152.8 809.452 152.213 805.879 151.04C802.359 149.813 799.372 148.053 796.919 145.76L802.119 136.4C804.732 138.107 807.239 139.44 809.639 140.4C812.092 141.36 814.306 141.84 816.279 141.84C817.399 141.84 818.226 141.707 818.759 141.44C819.292 141.12 819.559 140.613 819.559 139.92C819.559 139.44 819.372 139.04 818.999 138.72C818.626 138.4 818.012 138.08 817.159 137.76C816.359 137.44 815.319 137.093 814.039 136.72C810.732 135.547 807.959 134.453 805.719 133.44C803.532 132.427 801.879 131.2 800.759 129.76C799.692 128.267 799.159 126.293 799.159 123.84C799.159 120.96 799.879 118.427 801.319 116.24C802.759 114 804.812 112.24 807.479 110.96C810.199 109.68 813.452 109.04 817.239 109.04C820.066 109.04 822.892 109.493 825.719 110.4C828.599 111.253 831.372 112.827 834.039 115.12L828.279 124.4C825.612 122.747 823.346 121.573 821.479 120.88C819.666 120.187 818.039 119.84 816.599 119.84C815.906 119.84 815.292 119.92 814.759 120.08C814.279 120.24 813.906 120.48 813.639 120.8C813.372 121.12 813.239 121.547 813.239 122.08C813.239 122.613 813.426 123.067 813.799 123.44C814.172 123.76 814.759 124.08 815.559 124.4C816.359 124.667 817.372 124.987 818.599 125.36C822.226 126.427 825.186 127.52 827.479 128.64C829.772 129.707 831.452 131.013 832.519 132.56C833.639 134.107 834.199 136.133 834.199 138.64C834.199 143.067 832.626 146.533 829.479 149.04C826.386 151.547 822.146 152.8 816.759 152.8ZM839.957 152V109.92H855.157V152H839.957ZM839.957 106.4V93.6H855.157V106.4H839.957ZM905.168 152H889.968V128.32C889.968 126.24 889.488 124.747 888.528 123.84C887.621 122.88 886.554 122.4 885.328 122.4C884.474 122.4 883.568 122.667 882.608 123.2C881.648 123.68 880.768 124.373 879.968 125.28C879.168 126.187 878.528 127.227 878.048 128.4V152H862.848V109.92H876.528V116.16C877.541 114.613 878.821 113.333 880.368 112.32C881.914 111.253 883.701 110.453 885.728 109.92C887.754 109.387 889.968 109.12 892.368 109.12C895.248 109.12 897.541 109.627 899.248 110.64C900.954 111.653 902.234 112.96 903.088 114.56C903.941 116.16 904.501 117.84 904.768 119.6C905.034 121.307 905.168 122.88 905.168 124.32V152ZM933.255 152.8C929.575 152.8 926.295 152.24 923.415 151.12C920.535 149.947 918.109 148.373 916.135 146.4C914.215 144.427 912.749 142.16 911.735 139.6C910.722 137.04 910.215 134.347 910.215 131.52C910.215 127.467 911.095 123.76 912.855 120.4C914.615 116.987 917.202 114.267 920.615 112.24C924.029 110.16 928.242 109.12 933.255 109.12C938.269 109.12 942.482 110.133 945.895 112.16C949.309 114.187 951.895 116.853 953.655 120.16C955.415 123.467 956.295 127.067 956.295 130.96C956.295 131.76 956.242 132.587 956.135 133.44C956.082 134.24 956.002 134.96 955.895 135.6H926.375C926.482 137.093 926.882 138.32 927.575 139.28C928.322 140.187 929.229 140.853 930.295 141.28C931.415 141.707 932.562 141.92 933.735 141.92C935.389 141.92 936.935 141.547 938.375 140.8C939.869 140.053 940.855 139.013 941.335 137.68L954.215 141.36C953.095 143.6 951.522 145.573 949.495 147.28C947.522 148.987 945.175 150.347 942.455 151.36C939.735 152.32 936.669 152.8 933.255 152.8ZM926.055 126.48H939.975C939.815 125.093 939.415 123.92 938.775 122.96C938.189 122 937.389 121.253 936.375 120.72C935.415 120.187 934.295 119.92 933.015 119.92C931.735 119.92 930.589 120.187 929.575 120.72C928.615 121.253 927.815 122 927.175 122.96C926.589 123.92 926.215 125.093 926.055 126.48ZM978.165 152.8C974.485 152.8 970.859 152.213 967.285 151.04C963.765 149.813 960.779 148.053 958.325 145.76L963.525 136.4C966.139 138.107 968.645 139.44 971.045 140.4C973.499 141.36 975.712 141.84 977.685 141.84C978.805 141.84 979.632 141.707 980.165 141.44C980.699 141.12 980.965 140.613 980.965 139.92C980.965 139.44 980.779 139.04 980.405 138.72C980.032 138.4 979.419 138.08 978.565 137.76C977.765 137.44 976.725 137.093 975.445 136.72C972.139 135.547 969.365 134.453 967.125 133.44C964.939 132.427 963.285 131.2 962.165 129.76C961.099 128.267 960.565 126.293 960.565 123.84C960.565 120.96 961.285 118.427 962.725 116.24C964.165 114 966.219 112.24 968.885 110.96C971.605 109.68 974.859 109.04 978.645 109.04C981.472 109.04 984.299 109.493 987.125 110.4C990.005 111.253 992.779 112.827 995.445 115.12L989.685 124.4C987.019 122.747 984.752 121.573 982.885 120.88C981.072 120.187 979.445 119.84 978.005 119.84C977.312 119.84 976.699 119.92 976.165 120.08C975.685 120.24 975.312 120.48 975.045 120.8C974.779 121.12 974.645 121.547 974.645 122.08C974.645 122.613 974.832 123.067 975.205 123.44C975.579 123.76 976.165 124.08 976.965 124.4C977.765 124.667 978.779 124.987 980.005 125.36C983.632 126.427 986.592 127.52 988.885 128.64C991.179 129.707 992.859 131.013 993.925 132.56C995.045 134.107 995.605 136.133 995.605 138.64C995.605 143.067 994.032 146.533 990.885 149.04C987.792 151.547 983.552 152.8 978.165 152.8ZM1018.24 152.8C1014.56 152.8 1010.94 152.213 1007.36 151.04C1003.84 149.813 1000.86 148.053 998.403 145.76L1003.6 136.4C1006.22 138.107 1008.72 139.44 1011.12 140.4C1013.58 141.36 1015.79 141.84 1017.76 141.84C1018.88 141.84 1019.71 141.707 1020.24 141.44C1020.78 141.12 1021.04 140.613 1021.04 139.92C1021.04 139.44 1020.86 139.04 1020.48 138.72C1020.11 138.4 1019.5 138.08 1018.64 137.76C1017.84 137.44 1016.8 137.093 1015.52 136.72C1012.22 135.547 1009.44 134.453 1007.2 133.44C1005.02 132.427 1003.36 131.2 1002.24 129.76C1001.18 128.267 1000.64 126.293 1000.64 123.84C1000.64 120.96 1001.36 118.427 1002.8 116.24C1004.24 114 1006.3 112.24 1008.96 110.96C1011.68 109.68 1014.94 109.04 1018.72 109.04C1021.55 109.04 1024.38 109.493 1027.2 110.4C1030.08 111.253 1032.86 112.827 1035.52 115.12L1029.76 124.4C1027.1 122.747 1024.83 121.573 1022.96 120.88C1021.15 120.187 1019.52 119.84 1018.08 119.84C1017.39 119.84 1016.78 119.92 1016.24 120.08C1015.76 120.24 1015.39 120.48 1015.12 120.8C1014.86 121.12 1014.72 121.547 1014.72 122.08C1014.72 122.613 1014.91 123.067 1015.28 123.44C1015.66 123.76 1016.24 124.08 1017.04 124.4C1017.84 124.667 1018.86 124.987 1020.08 125.36C1023.71 126.427 1026.67 127.52 1028.96 128.64C1031.26 129.707 1032.94 131.013 1034 132.56C1035.12 134.107 1035.68 136.133 1035.68 138.64C1035.68 143.067 1034.11 146.533 1030.96 149.04C1027.87 151.547 1023.63 152.8 1018.24 152.8Z" fill="white"/>
</svg>
