<svg width="19" height="14" viewBox="0 0 19 14" fill="none" xmlns="http://www.w3.org/2000/svg">
<path d="M7.91213 9.10604C8.38483 9.41607 8.9339 9.57996 9.5 9.57996C10.0661 9.57996 10.6151 9.41607 11.0878 9.10604L18.8735 3.99941C18.9167 3.97108 18.9588 3.94155 19 3.91117V12.2789C19 13.2383 18.2086 13.9997 17.2509 13.9997H1.74911C0.773953 13.9997 3.73721e-05 13.2212 3.73721e-05 12.2789V3.91113C0.0413401 3.94158 0.0834958 3.97119 0.126802 3.99956L7.91213 9.10604Z" fill="white"/>
<path d="M18.256 3.08837L10.4703 8.19504C10.1756 8.38835 9.83781 8.48499 9.50004 8.48499C9.16223 8.48499 8.82442 8.38832 8.5297 8.19504L0.744043 3.08837C0.278134 2.78297 0 2.27185 0 1.7202C0 0.771655 0.784381 0 1.74848 0H17.2515C18.2156 3.6509e-05 19 0.771691 19 1.72111C19 2.27185 18.7218 2.78297 18.256 3.08837V3.08837Z" fill="white"/>
</svg>
