<svg width="21" height="21" viewBox="0 0 21 21" fill="none" xmlns="http://www.w3.org/2000/svg">
<path fill-rule="evenodd" clip-rule="evenodd" d="M10.0006 1C4.47815 1 0 5.47698 0 11.0006C0 15.0942 2.46252 18.6127 5.98695 20.1592C5.95873 19.4618 5.98225 18.6221 6.15982 17.8625C6.35268 17.051 7.44634 12.4141 7.44634 12.4141C7.44634 12.4141 7.12765 11.7756 7.12765 10.8313C7.12765 9.34951 7.9873 8.2429 9.05627 8.2429C9.96531 8.2429 10.4051 8.92615 10.4051 9.74463C10.4051 10.6584 9.82184 12.026 9.52197 13.2926C9.27148 14.3545 10.0535 15.2189 11.1001 15.2189C12.9946 15.2189 14.2706 12.7857 14.2706 9.90222C14.2706 7.71136 12.7947 6.07085 10.11 6.07085C7.07708 6.07085 5.18728 8.33228 5.18728 10.8583C5.18728 11.7309 5.44365 12.3447 5.84583 12.8198C6.03164 13.0397 6.05633 13.1268 5.9893 13.3784C5.94226 13.5607 5.83172 14.0052 5.78585 14.1805C5.71882 14.4333 5.51421 14.525 5.28606 14.4309C3.88782 13.8606 3.2375 12.3306 3.2375 10.6102C3.2375 7.77016 5.63298 4.36215 10.384 4.36215C14.2024 4.36215 16.7155 7.12689 16.7155 10.0916C16.7155 14.0146 14.5352 16.9452 11.3189 16.9452C10.2405 16.9452 9.22443 16.3619 8.87634 15.6998C8.87634 15.6998 8.29541 18.0036 8.1731 18.4481C7.96143 19.2184 7.5463 19.9898 7.16646 20.5896C8.06608 20.8553 9.01628 21 10.0006 21C15.523 21 20 16.523 20 11.0006C20 5.47698 15.523 1 10.0006 1Z" fill="white"/>
</svg>
