<svg width="20" height="20" viewBox="0 0 20 20" fill="none" xmlns="http://www.w3.org/2000/svg">
<path fill-rule="evenodd" clip-rule="evenodd" d="M10.0006 0C4.47815 0 0 4.47698 0 10.0006C0 14.0942 2.46252 17.6127 5.98695 19.1592C5.95873 18.4618 5.98225 17.6221 6.15982 16.8625C6.35268 16.051 7.44634 11.4141 7.44634 11.4141C7.44634 11.4141 7.12765 10.7756 7.12765 9.83125C7.12765 8.34951 7.9873 7.2429 9.05627 7.2429C9.96531 7.2429 10.4051 7.92615 10.4051 8.74463C10.4051 9.65838 9.82184 11.026 9.52197 12.2926C9.27148 13.3545 10.0535 14.2189 11.1001 14.2189C12.9946 14.2189 14.2706 11.7857 14.2706 8.90222C14.2706 6.71136 12.7947 5.07085 10.11 5.07085C7.07708 5.07085 5.18728 7.33228 5.18728 9.8583C5.18728 10.7309 5.44365 11.3447 5.84583 11.8198C6.03164 12.0397 6.05633 12.1268 5.9893 12.3784C5.94226 12.5607 5.83172 13.0052 5.78585 13.1805C5.71882 13.4333 5.51421 13.525 5.28606 13.4309C3.88782 12.8606 3.2375 11.3306 3.2375 9.61016C3.2375 6.77016 5.63298 3.36215 10.384 3.36215C14.2024 3.36215 16.7155 6.12689 16.7155 9.09156C16.7155 13.0146 14.5352 15.9452 11.3189 15.9452C10.2405 15.9452 9.22443 15.3619 8.87634 14.6998C8.87634 14.6998 8.29541 17.0036 8.1731 17.4481C7.96143 18.2184 7.5463 18.9898 7.16646 19.5896C8.06608 19.8553 9.01628 20 10.0006 20C15.523 20 20 15.523 20 10.0006C20 4.47698 15.523 0 10.0006 0Z" fill="white"/>
</svg>
