<svg width="19" height="20" viewBox="0 0 19 20" fill="none" xmlns="http://www.w3.org/2000/svg">
<path d="M16.872 13.9203C15.6404 12.8869 14.3906 12.261 13.1742 13.2928L12.4478 13.9164C11.9164 14.3691 10.9283 16.4842 7.10792 12.1728C3.28839 7.86675 5.56133 7.19631 6.09357 6.74752L6.82391 6.12312C8.03397 5.08896 7.57731 3.78709 6.70457 2.44698L6.1779 1.63526C5.30118 0.298264 4.3465 -0.579797 3.13325 0.452802L2.4777 1.01476C1.94149 1.39799 0.44263 2.64366 0.0790539 5.01013C-0.35851 7.84958 1.02181 11.1011 4.1842 14.6688C7.34262 18.238 10.435 20.0308 13.3643 19.9996C15.7987 19.9738 17.269 18.6923 17.7288 18.2263L18.3867 17.6636C19.5968 16.6317 18.845 15.5812 17.6126 14.5455L16.872 13.9203Z" fill="white"/>
</svg>
