<svg width="28" height="20" viewBox="0 0 28 20" fill="none" xmlns="http://www.w3.org/2000/svg">
<g clip-path="url(#clip0_18_415)">
<path fill-rule="evenodd" clip-rule="evenodd" d="M11.109 13.6882L11.1081 5.69867L18.6734 9.70721L11.109 13.6882ZM27.72 4.31422C27.72 4.31422 27.4461 2.35483 26.607 1.49199C25.5421 0.359006 24.3486 0.353664 23.8017 0.287906C19.8835 -4.17233e-06 14.0061 0 14.0061 0H13.9939C13.9939 0 8.1165 -4.17233e-06 4.19825 0.287906C3.6505 0.353664 2.45788 0.359006 1.39213 1.49199C0.553003 2.35483 0.279997 4.31422 0.279997 4.31422C0.279997 4.31422 0 6.61572 0 8.91634V11.0739C0 13.3754 0.279997 15.676 0.279997 15.676C0.279997 15.676 0.553003 17.6354 1.39213 18.4982C2.45788 19.6312 3.857 19.5957 4.48 19.7139C6.72 19.9325 14 20 14 20C14 20 19.8835 19.9911 23.8017 19.7032C24.3486 19.6366 25.5421 19.6312 26.607 18.4982C27.4461 17.6354 27.72 15.676 27.72 15.676C27.72 15.676 28 13.3754 28 11.0739V8.91634C28 6.61572 27.72 4.31422 27.72 4.31422Z" fill="white"/>
</g>
<defs>
<clipPath id="clip0_18_415">
<rect width="28" height="20" fill="white"/>
</clipPath>
</defs>
</svg>
