<svg width="45" height="45" viewBox="0 0 45 45" fill="none" xmlns="http://www.w3.org/2000/svg">
<path d="M1.25678 25.8081L4.19333 26.2977C4.65728 28.585 5.54516 30.7615 6.80951 32.711L5.07051 35.1798C4.70969 35.6794 4.71589 36.3613 5.08579 36.8541C5.52427 37.3993 5.9902 37.9211 6.48161 38.4174C6.97737 38.9225 7.48841 39.388 8.01473 39.838C8.49949 40.215 9.17072 40.2213 9.66227 39.8535L12.0878 38.0838C14.0024 39.3706 16.1406 40.2744 18.388 40.7465L18.8685 43.7359C18.9601 44.3475 19.4397 44.8228 20.0431 44.8997C20.4611 44.9479 20.8821 44.9773 21.3123 44.9991C21.5212 45.0094 21.7253 44.9327 21.8773 44.7866C22.0293 44.6404 22.1161 44.4376 22.1178 44.2248V38.007C22.1156 37.5879 21.7882 37.2454 21.3764 37.2312C13.6686 36.8247 7.62387 30.349 7.62387 22.498C7.62387 14.6471 13.6686 8.17138 21.3764 7.76492C21.7882 7.75073 22.1156 7.40826 22.1178 6.98904V0.776732C22.1167 0.564083 22.0304 0.361046 21.8788 0.21455C21.7272 0.0680534 21.5234 -0.00906167 21.3146 0.00084992C20.8859 0.0189461 20.4621 0.0495068 20.043 0.0923819C19.4395 0.17603 18.9618 0.653212 18.8685 1.26548L18.3879 4.25487C16.1406 4.7277 14.0025 5.63161 12.0877 6.91839L9.6622 5.14789C9.17064 4.78004 8.49942 4.78634 8.01466 5.16343C7.48014 5.61006 6.96844 6.08424 6.48154 6.58402C5.98644 7.07675 5.52035 7.59876 5.08571 8.14735C4.71426 8.64075 4.70806 9.32442 5.07043 9.82473L6.80943 12.2935C5.54538 14.2423 4.6575 16.418 4.19326 18.7045L1.25671 19.1933C0.655391 19.2867 0.188198 19.7749 0.112609 20.3889C-0.0375364 21.7813 -0.0375364 23.1861 0.112609 24.5785C0.180448 25.2026 0.647788 25.705 1.25678 25.8081V25.8081Z" fill="url(#paint0_linear_18_332)"/>
<path d="M21.3887 10.8864C15.3628 11.2746 10.6709 16.3592 10.6709 22.5009C10.6709 28.6427 15.3629 33.7272 21.3887 34.1155C21.5804 34.1236 21.767 34.0513 21.9048 33.9155C22.0426 33.7796 22.1196 33.5922 22.1178 33.3971V11.6048C22.1197 11.4096 22.0427 11.2222 21.9048 11.0864C21.767 10.9506 21.5804 10.8782 21.3887 10.8864V10.8864Z" fill="url(#paint1_linear_18_332)"/>
<path d="M27.4572 11.6387H23.6436V13.1904H27.4572C28.7194 13.1866 29.7416 12.1468 29.7454 10.8629V6.06498C30.7961 5.68714 31.4264 4.59423 31.2379 3.47693C31.0495 2.35962 30.0972 1.54297 28.9826 1.54297C27.8682 1.54297 26.9158 2.35962 26.7274 3.47693C26.5389 4.59423 27.1692 5.68714 28.2199 6.06498V10.8629C28.2199 11.2914 27.8784 11.6387 27.4572 11.6387V11.6387Z" fill="url(#paint2_linear_18_332)"/>
<path d="M23.6426 16.294H31.27C31.6912 16.294 32.0327 15.9466 32.0327 15.5181C32.0327 15.0895 31.6912 14.7422 31.27 14.7422H23.6426V16.294Z" fill="url(#paint3_linear_18_332)"/>
<path d="M23.6426 33.3622H27.4562C27.8775 33.3622 28.219 33.7096 28.219 34.1381V38.936C27.1683 39.3138 26.538 40.4067 26.7265 41.5241C26.9149 42.6414 27.8672 43.458 28.9817 43.458C30.0962 43.458 31.0486 42.6414 31.237 41.5241C31.4255 40.4067 30.7952 39.3138 29.7445 38.936V34.1381C29.7407 32.8542 28.7185 31.8144 27.4563 31.8105H23.6427V33.3622H23.6426Z" fill="url(#paint4_linear_18_332)"/>
<path d="M35.0836 25.6045H23.6426V27.1562H35.0836C35.5049 27.1562 35.8464 27.5035 35.8464 27.9321V31.9541C34.7956 32.332 34.1654 33.4249 34.3538 34.5422C34.5423 35.6595 35.4946 36.4761 36.6091 36.4761C37.7235 36.4761 38.6759 35.6595 38.8644 34.5422C39.0529 33.4249 38.4226 32.332 37.3719 31.9541V27.9321C37.368 26.6481 36.3458 25.6083 35.0836 25.6045V25.6045Z" fill="url(#paint5_linear_18_332)"/>
<path d="M42.711 20.1729C41.7448 20.1769 40.8852 20.7979 40.5631 21.7245H23.6426V23.2762H40.5631C40.9529 24.3893 42.1017 25.0276 43.233 24.7597C44.3643 24.4918 45.1179 23.403 44.9843 22.2293C44.8507 21.0557 43.8725 20.1708 42.711 20.1729V20.1729Z" fill="url(#paint6_linear_18_332)"/>
<path d="M32.0327 29.4829C32.0327 29.0544 31.6912 28.707 31.27 28.707H23.6426V30.2587H31.27C31.6912 30.2588 32.0327 29.9114 32.0327 29.4829Z" fill="url(#paint7_linear_18_332)"/>
<path d="M37.3719 17.0695V13.0474C38.4226 12.6696 39.0529 11.5767 38.8644 10.4594C38.6759 9.34204 37.7236 8.52539 36.6091 8.52539C35.4947 8.52539 34.5423 9.34204 34.3538 10.4594C34.1654 11.5767 34.7956 12.6696 35.8464 13.0474V17.0695C35.8464 17.498 35.5049 17.8454 35.0836 17.8454H23.6426V19.397H35.0836C36.3459 19.3931 37.3681 18.3533 37.3719 17.0695V17.0695Z" fill="url(#paint8_linear_18_332)"/>
<defs>
<linearGradient id="paint0_linear_18_332" x1="0" y1="0" x2="33.692" y2="11.7161" gradientUnits="userSpaceOnUse">
<stop stop-color="#0EA1EF"/>
<stop offset="1" stop-color="#064BCA"/>
</linearGradient>
<linearGradient id="paint1_linear_18_332" x1="10.6709" y1="10.8857" x2="28.0985" y2="16.9615" gradientUnits="userSpaceOnUse">
<stop stop-color="#0EA1EF"/>
<stop offset="1" stop-color="#064BCA"/>
</linearGradient>
<linearGradient id="paint2_linear_18_332" x1="23.6436" y1="1.54297" x2="34.3659" y2="6.51086" gradientUnits="userSpaceOnUse">
<stop stop-color="#0EA1EF"/>
<stop offset="1" stop-color="#064BCA"/>
</linearGradient>
<linearGradient id="paint3_linear_18_332" x1="23.6426" y1="14.7422" x2="24.559" y2="18.2477" gradientUnits="userSpaceOnUse">
<stop stop-color="#0EA1EF"/>
<stop offset="1" stop-color="#064BCA"/>
</linearGradient>
<linearGradient id="paint4_linear_18_332" x1="23.6426" y1="31.8105" x2="34.365" y2="36.7785" gradientUnits="userSpaceOnUse">
<stop stop-color="#0EA1EF"/>
<stop offset="1" stop-color="#064BCA"/>
</linearGradient>
<linearGradient id="paint5_linear_18_332" x1="23.6426" y1="25.6045" x2="36.7612" y2="38.6281" gradientUnits="userSpaceOnUse">
<stop stop-color="#0EA1EF"/>
<stop offset="1" stop-color="#064BCA"/>
</linearGradient>
<linearGradient id="paint6_linear_18_332" x1="23.6426" y1="20.1729" x2="26.7945" y2="30.4202" gradientUnits="userSpaceOnUse">
<stop stop-color="#0EA1EF"/>
<stop offset="1" stop-color="#064BCA"/>
</linearGradient>
<linearGradient id="paint7_linear_18_332" x1="23.6426" y1="28.707" x2="24.5589" y2="32.2124" gradientUnits="userSpaceOnUse">
<stop stop-color="#0EA1EF"/>
<stop offset="1" stop-color="#064BCA"/>
</linearGradient>
<linearGradient id="paint8_linear_18_332" x1="23.6426" y1="8.52539" x2="36.7612" y2="21.549" gradientUnits="userSpaceOnUse">
<stop stop-color="#0EA1EF"/>
<stop offset="1" stop-color="#064BCA"/>
</linearGradient>
</defs>
</svg>
