<svg width="34" height="32" viewBox="0 0 34 32" fill="none" xmlns="http://www.w3.org/2000/svg">
<path d="M11.1222 0.00193933C13.9272 -0.000843352 16.7323 -0.000843286 19.5372 0.00333074C23.443 9.58411 27.3431 19.1677 31.2474 28.7484C31.6384 29.8615 32.9332 30.2038 34 30.3415V31.9986C28.9198 31.9986 23.8382 31.9986 18.7567 31.9986C18.7567 31.4532 18.7567 30.9078 18.7567 30.3638C19.8928 30.2775 21.2358 30.3304 22.0816 29.4483C22.7488 28.6622 22.3677 27.595 22.1241 26.7199C21.6027 25.2617 20.9837 23.8398 20.4212 22.3984C16.4673 22.3984 12.5148 22.3984 8.56233 22.3984C8.06367 23.7493 7.58483 25.1087 7.03658 26.4416C6.6895 27.186 6.27867 27.9582 6.34383 28.8027C6.39625 29.2966 6.73908 29.7293 7.21367 29.9046C7.99 30.226 8.84708 30.2803 9.67867 30.3304C9.68292 30.8883 9.69 31.4435 9.68292 32C6.45575 32 3.22717 32 0 32C0 31.4462 0 30.8925 0 30.3401C0.93925 30.2093 2.11367 29.9673 2.47633 28.9766C5.81967 20.616 9.15875 12.2527 12.5049 3.89491C12.6041 3.71682 12.5828 3.51786 12.4922 3.34116C12.0317 2.23087 11.5798 1.11501 11.1222 0.00193933V0.00193933ZM9.70133 19.2372C12.8322 19.2442 15.9616 19.2386 19.0924 19.24C17.4972 15.3387 15.9049 11.4374 14.3083 7.53744C12.818 11.4541 11.2922 15.3582 9.70133 19.2372V19.2372Z" fill="url(#paint0_linear_18_330)"/>
<defs>
<linearGradient id="paint0_linear_18_330" x1="0" y1="0" x2="37.0939" y2="27.8843" gradientUnits="userSpaceOnUse">
<stop stop-color="#0EA1EF"/>
<stop offset="1" stop-color="#064BCA"/>
</linearGradient>
</defs>
</svg>
