<svg width="39" height="21" viewBox="0 0 39 21" fill="none" xmlns="http://www.w3.org/2000/svg">
<path d="M27.2865 5.77001H25.6507C25.4941 5.43905 25.3117 5.12263 25.1045 4.82236L25.9219 3.40655C26.1907 2.94099 26.0312 2.34571 25.5657 2.07697L22.1941 0.130401C21.9705 0.00128956 21.7047 -0.0335972 21.4555 0.0331294C21.2062 0.100008 20.9936 0.263092 20.8646 0.486657L20.0485 1.90018C19.6802 1.86887 19.3199 1.86887 18.9516 1.90018L18.1355 0.486657C18.0064 0.263092 17.7938 0.100008 17.5445 0.0331294C17.2953 -0.0335972 17.0295 0.00128956 16.806 0.130401L13.4344 2.07705C12.9688 2.34578 12.8093 2.94107 13.0781 3.40663L13.8955 4.82251C13.6883 5.12271 13.506 5.4392 13.3494 5.77009H11.7136C11.176 5.77009 10.7402 6.20587 10.7402 6.74341V10.6366C10.7402 11.1742 11.176 11.61 11.7136 11.61H13.3494C13.506 11.9408 13.6883 12.2573 13.8955 12.5575L13.0781 13.9733C12.8093 14.4389 12.9688 15.0342 13.4344 15.3029L16.806 17.2496C17.0295 17.3787 17.2951 17.4135 17.5445 17.3468C17.7938 17.28 18.0064 17.1169 18.1355 16.8933L18.9516 15.4796C19.3199 15.5111 19.6802 15.5111 20.0485 15.4796L20.8646 16.8932C20.9937 17.1167 21.2063 17.2798 21.4555 17.3467C21.5384 17.3689 21.6231 17.3798 21.7075 17.3798C21.8769 17.3798 22.0449 17.3356 22.1941 17.2494L25.5657 15.3028C26.0313 15.034 26.1908 14.4388 25.922 13.9732L25.1046 12.5574C25.3118 12.2572 25.4941 11.9408 25.6508 11.6098H27.2865C27.8241 11.6098 28.2599 11.174 28.2599 10.6365V9.66316V7.71651V6.74334C28.2598 6.20579 27.824 5.77001 27.2865 5.77001ZM19.5 11.5464C17.9249 11.5464 16.6436 10.2651 16.6436 8.68991C16.6436 7.11475 17.9249 5.83347 19.5 5.83347C21.0752 5.83347 22.3565 7.11475 22.3565 8.68991C22.3565 10.2651 21.0752 11.5464 19.5 11.5464Z" fill="url(#paint0_linear_18_346)"/>
<path d="M6.09376 12.3322V9.83203H8.45509V7.54688H4.95118C4.32017 7.54688 3.8086 8.05845 3.8086 8.68945V12.3322C2.9228 12.5405 2.10966 12.9899 1.45016 13.6495C0.514999 14.5845 0 15.8279 0 17.1504C0 18.4729 0.514999 19.7163 1.45016 20.6514C1.8963 21.0975 2.61978 21.0975 3.066 20.6514C3.51222 20.2053 3.51222 19.4818 3.066 19.0356C2.02656 17.9961 2.02656 16.3047 3.066 15.2652C3.56957 14.7617 4.23905 14.4844 4.95118 14.4844C5.66331 14.4844 6.33279 14.7617 6.83636 15.2652C7.87581 16.3047 7.87581 17.9961 6.83636 19.0356C6.39015 19.4817 6.39015 20.2052 6.83636 20.6514C7.05947 20.8745 7.3519 20.9861 7.64424 20.9861C7.93659 20.9861 8.22909 20.8745 8.45212 20.6514C9.38729 19.7163 9.90229 18.4729 9.90229 17.1504C9.90229 15.8279 9.38729 14.5845 8.45212 13.6494C7.7927 12.9899 6.97957 12.5405 6.09376 12.3322Z" fill="url(#paint1_linear_18_346)"/>
<path d="M37.5499 13.6495C36.8904 12.9899 36.0772 12.5406 35.1914 12.3322V8.68945C35.1914 8.05845 34.6798 7.54688 34.0488 7.54688H30.5449V9.83203H32.9063V12.3322C32.0205 12.5405 31.2073 12.9899 30.5478 13.6495C29.6127 14.5846 29.0977 15.828 29.0977 17.1505C29.0977 18.473 29.6127 19.7164 30.5478 20.6515C30.994 21.0976 31.7174 21.0976 32.1637 20.6515C32.6099 20.2053 32.6099 19.4819 32.1637 19.0356C31.1242 17.9962 31.1242 16.3047 32.1637 15.2653C32.6672 14.7618 33.3367 14.4845 34.0488 14.4845C34.761 14.4845 35.4304 14.7618 35.934 15.2653C36.9735 16.3047 36.9735 17.9962 35.934 19.0356C35.4878 19.4818 35.4878 20.2053 35.934 20.6515C36.1571 20.8746 36.4496 20.9862 36.7419 20.9862C37.0342 20.9862 37.3267 20.8746 37.5498 20.6515C38.4849 19.7164 38.9999 18.473 38.9999 17.1505C38.9999 15.828 38.485 14.5846 37.5499 13.6495V13.6495Z" fill="url(#paint2_linear_18_346)"/>
<defs>
<linearGradient id="paint0_linear_18_346" x1="10.7402" y1="0" x2="30.5692" y2="14.1419" gradientUnits="userSpaceOnUse">
<stop stop-color="#0EA1EF"/>
<stop offset="1" stop-color="#064BCA"/>
</linearGradient>
<linearGradient id="paint1_linear_18_346" x1="0" y1="7.54688" x2="13.2952" y2="14.4777" gradientUnits="userSpaceOnUse">
<stop stop-color="#0EA1EF"/>
<stop offset="1" stop-color="#064BCA"/>
</linearGradient>
<linearGradient id="paint2_linear_18_346" x1="29.0977" y1="7.54688" x2="42.3928" y2="14.4777" gradientUnits="userSpaceOnUse">
<stop stop-color="#0EA1EF"/>
<stop offset="1" stop-color="#064BCA"/>
</linearGradient>
</defs>
</svg>
