<svg width="35" height="35" viewBox="0 0 35 35" fill="none" xmlns="http://www.w3.org/2000/svg">
<path d="M0.0683594 27.8086V29.8292H14.458V26.7812H1.09375C0.527734 26.7812 0.0683594 27.2415 0.0683594 27.8086Z" fill="url(#paint0_linear_18_306)"/>
<path d="M0.0683594 33.9728C0.0683594 34.54 0.527734 35.0002 1.09375 35.0002H14.458V31.8838H0.0683594V33.9728Z" fill="url(#paint1_linear_18_306)"/>
<path d="M1.75051 20.3151L5.16116 16.8978L7.54649 19.2877C7.94687 19.689 8.59615 19.689 8.9966 19.2877L12.3731 15.9046V16.5064C12.3731 17.0738 12.8322 17.5338 13.3985 17.5338C13.9647 17.5338 14.4238 17.0738 14.4238 16.5064V13.4246C14.4241 12.9042 14.0289 12.4538 13.4998 12.402C13.4032 12.3924 13.1878 12.3987 10.3906 12.3968C9.82436 12.3968 9.36526 12.8568 9.36526 13.4242C9.36526 13.9916 9.82436 14.4516 10.3906 14.4516H10.923L8.27151 17.1083L5.88618 14.7183C5.4858 14.3171 4.83652 14.3171 4.43607 14.7183L0.300337 18.8622C-0.100112 19.2634 -0.100112 19.9139 0.300337 20.3151C0.700717 20.7163 1.35006 20.7164 1.75051 20.3151Z" fill="url(#paint2_linear_18_306)"/>
<path d="M25.7544 16.4726C30.287 16.4726 33.9746 12.7778 33.9746 8.2363C33.9746 3.69479 30.287 0 25.7544 0C21.2218 0 17.5342 3.69479 17.5342 8.2363C17.5342 12.7778 21.2218 16.4726 25.7544 16.4726ZM22.9371 10.7608C23.247 10.286 23.8826 10.1529 24.3566 10.4635C24.8564 10.7911 25.0171 10.8164 25.7018 10.8119C26.3613 10.8075 26.6242 10.2887 26.6755 9.98288C26.7215 9.70829 26.6698 9.34322 26.1616 9.16322C25.3103 8.86164 24.4371 8.51562 23.8188 8.02959C22.4106 6.92288 22.8356 4.39527 24.6832 3.7226V3.57377C24.6832 3.00637 25.1423 2.54637 25.7086 2.54637C26.2749 2.54637 26.734 3.00637 26.734 3.57377V3.66048C27.5809 3.9074 27.9651 4.36247 28.0387 4.41959C28.455 4.80425 28.4813 5.45425 28.0973 5.87137C27.7134 6.28849 27.0648 6.31479 26.6484 5.93014C26.6022 5.8937 26.2775 5.49411 25.6102 5.59836C24.9654 5.69904 24.8408 6.3124 25.3997 6.6189C25.8374 6.85897 26.3624 7.05507 26.8451 7.22603C29.5476 8.18322 29.2184 11.7847 26.7339 12.6846V12.8991C26.7339 13.4665 26.2748 13.9265 25.7085 13.9265C25.1422 13.9265 24.6831 13.4665 24.6831 12.8991V12.8007C24.2108 12.7177 23.7791 12.5405 23.2338 12.1832C22.76 11.8724 22.6271 11.2356 22.9371 10.7608V10.7608Z" fill="url(#paint3_linear_18_306)"/>
<path d="M16.5088 24.6579H35C35 23.5922 35 22.5415 35 21.5586H16.5088V24.6579Z" fill="url(#paint4_linear_18_306)"/>
<path d="M16.5088 29.8112H35C35 28.8343 35 27.7831 35 26.7119H16.5088V29.8112Z" fill="url(#paint5_linear_18_306)"/>
<path d="M33.9746 16.5068H17.5342C16.9679 16.5068 16.5088 16.9668 16.5088 17.5342V19.5034H35C35 18.7512 35 18.0821 35 17.5342C35 16.9668 34.5409 16.5068 33.9746 16.5068Z" fill="url(#paint6_linear_18_306)"/>
<path d="M16.5088 33.9724C16.5088 34.5398 16.9679 34.9998 17.5342 34.9998H33.9746C34.5409 34.9998 35 34.5398 35 33.9724C35 33.4237 35 32.7029 35 31.8662H16.5088V33.9724Z" fill="url(#paint7_linear_18_306)"/>
<defs>
<linearGradient id="paint0_linear_18_306" x1="0.0683594" y1="26.7812" x2="2.08946" y2="33.5321" gradientUnits="userSpaceOnUse">
<stop stop-color="#0EA1EF"/>
<stop offset="1" stop-color="#064BCA"/>
</linearGradient>
<linearGradient id="paint1_linear_18_306" x1="0.0683594" y1="31.8838" x2="2.17345" y2="38.7607" gradientUnits="userSpaceOnUse">
<stop stop-color="#0EA1EF"/>
<stop offset="1" stop-color="#064BCA"/>
</linearGradient>
<linearGradient id="paint2_linear_18_306" x1="0" y1="12.3965" x2="9.69088" y2="24.4282" gradientUnits="userSpaceOnUse">
<stop stop-color="#0EA1EF"/>
<stop offset="1" stop-color="#064BCA"/>
</linearGradient>
<linearGradient id="paint3_linear_18_306" x1="17.5342" y1="0" x2="36.2663" y2="13.2272" gradientUnits="userSpaceOnUse">
<stop stop-color="#0EA1EF"/>
<stop offset="1" stop-color="#064BCA"/>
</linearGradient>
<linearGradient id="paint4_linear_18_306" x1="16.5088" y1="21.5586" x2="18.1866" y2="28.641" gradientUnits="userSpaceOnUse">
<stop stop-color="#0EA1EF"/>
<stop offset="1" stop-color="#064BCA"/>
</linearGradient>
<linearGradient id="paint5_linear_18_306" x1="16.5088" y1="26.7119" x2="18.1866" y2="33.7944" gradientUnits="userSpaceOnUse">
<stop stop-color="#0EA1EF"/>
<stop offset="1" stop-color="#064BCA"/>
</linearGradient>
<linearGradient id="paint6_linear_18_306" x1="16.5088" y1="16.5068" x2="18.0827" y2="23.3783" gradientUnits="userSpaceOnUse">
<stop stop-color="#0EA1EF"/>
<stop offset="1" stop-color="#064BCA"/>
</linearGradient>
<linearGradient id="paint7_linear_18_306" x1="16.5088" y1="31.8662" x2="18.2219" y2="39.0185" gradientUnits="userSpaceOnUse">
<stop stop-color="#0EA1EF"/>
<stop offset="1" stop-color="#064BCA"/>
</linearGradient>
</defs>
</svg>
