<svg width="37" height="37" viewBox="0 0 37 37" fill="none" xmlns="http://www.w3.org/2000/svg">
<path d="M4.19824 13.2822H11.1325V14.8913C11.1325 15.2225 10.8566 15.4946 10.5207 15.4946H9.70488V27.3966H10.5207C10.8566 27.3966 11.1325 27.6628 11.1325 27.9999V29.6089H4.19824V27.9999C4.19824 27.6628 4.47415 27.3966 4.8101 27.3966H5.62589V15.4946H4.8101C4.47415 15.4946 4.19824 15.2225 4.19824 14.8913V13.2822Z" fill="url(#paint0_linear_18_316)"/>
<path d="M15.0322 13.2822H21.9665V14.8913C21.9665 15.2225 21.6906 15.4946 21.3547 15.4946H20.5389V27.3966H21.3547C21.6906 27.3966 21.9665 27.6628 21.9665 27.9999V29.6089H15.0322V27.9999C15.0322 27.6628 15.3082 27.3966 15.6441 27.3966H16.4599V15.4946H15.6441C15.3082 15.4946 15.0322 15.2225 15.0322 14.8913V13.2822Z" fill="url(#paint1_linear_18_316)"/>
<path d="M31.3719 27.3966H32.1877C32.5236 27.3966 32.7995 27.6628 32.7995 27.9999V29.6089H25.8652V27.9999C25.8652 27.6628 26.1412 27.3966 26.4771 27.3966H27.2929V15.4946H26.4771C26.1412 15.4946 25.8652 15.2225 25.8652 14.8913V13.2822H32.7995V14.8913C32.7995 15.2225 32.5236 15.4946 32.1877 15.4946H31.3719V27.3966Z" fill="url(#paint2_linear_18_316)"/>
<path d="M34.8687 31.5196V33.0694H2.13477V31.5196C2.13477 31.1173 2.46468 30.792 2.87257 30.792H34.1309C34.5388 30.792 34.8687 31.1173 34.8687 31.5196Z" fill="url(#paint3_linear_18_316)"/>
<path d="M37 36.2709V34.979C37 34.5764 36.669 34.25 36.2608 34.25H0.739228C0.330963 34.25 0 34.5764 0 34.979V36.2709C0 36.6735 0.330963 36.9999 0.739228 36.9999H36.2608C36.669 36.9999 37 36.6735 37 36.2709Z" fill="url(#paint4_linear_18_316)"/>
<path d="M17.7699 0.185064L1.90666 8.72802C1.6704 8.85525 1.52344 9.09954 1.52344 9.365V11.3734C1.52344 11.7742 1.85294 12.0992 2.25941 12.0992H34.7451C35.1516 12.0992 35.4811 11.7742 35.4811 11.3734V9.36493C35.4811 9.0995 35.3342 8.85525 35.098 8.728L19.2405 0.185173C18.7823 -0.0616859 18.2282 -0.0617264 17.7699 0.185064V0.185064ZM18.5047 8.8821C17.176 8.8821 16.0958 7.81683 16.0958 6.50659C16.0958 5.1963 17.176 4.13104 18.5047 4.13104C19.8279 4.13104 20.9028 5.1963 20.9028 6.50659C20.9028 7.81684 19.8279 8.8821 18.5047 8.8821Z" fill="url(#paint5_linear_18_316)"/>
<defs>
<linearGradient id="paint0_linear_18_316" x1="4.19824" y1="13.2822" x2="15.058" y2="16.5455" gradientUnits="userSpaceOnUse">
<stop stop-color="#0EA1EF"/>
<stop offset="1" stop-color="#064BCA"/>
</linearGradient>
<linearGradient id="paint1_linear_18_316" x1="15.0322" y1="13.2822" x2="25.892" y2="16.5455" gradientUnits="userSpaceOnUse">
<stop stop-color="#0EA1EF"/>
<stop offset="1" stop-color="#064BCA"/>
</linearGradient>
<linearGradient id="paint2_linear_18_316" x1="25.8652" y1="13.2822" x2="36.725" y2="16.5455" gradientUnits="userSpaceOnUse">
<stop stop-color="#0EA1EF"/>
<stop offset="1" stop-color="#064BCA"/>
</linearGradient>
<linearGradient id="paint3_linear_18_316" x1="2.13477" y1="30.792" x2="2.67009" y2="36.2358" gradientUnits="userSpaceOnUse">
<stop stop-color="#0EA1EF"/>
<stop offset="1" stop-color="#064BCA"/>
</linearGradient>
<linearGradient id="paint4_linear_18_316" x1="0" y1="34.25" x2="0.68954" y2="40.8142" gradientUnits="userSpaceOnUse">
<stop stop-color="#0EA1EF"/>
<stop offset="1" stop-color="#064BCA"/>
</linearGradient>
<linearGradient id="paint5_linear_18_316" x1="1.52344" y1="0" x2="13.2538" y2="23.2929" gradientUnits="userSpaceOnUse">
<stop stop-color="#0EA1EF"/>
<stop offset="1" stop-color="#064BCA"/>
</linearGradient>
</defs>
</svg>
