<svg width="38" height="38" viewBox="0 0 38 38" fill="none" xmlns="http://www.w3.org/2000/svg">
<path d="M31.2445 7.86719C31.2445 3.57059 27.7474 0 23.4499 0C21.7752 0 20.2104 0.716434 18.9958 2.00584C17.7811 0.716434 16.2163 0 14.5417 0C10.2442 0 6.74707 3.57059 6.74707 7.86719C6.74707 12.1888 9.91904 14.4197 13.5924 17.0039C15.1071 18.0693 16.6742 19.1717 18.2661 20.5525L18.9947 21.1852L19.7243 20.5535C21.524 18.9967 23.2356 17.778 24.745 16.7027C28.3758 14.1186 31.2445 12.0768 31.2445 7.86719ZM22.3363 11.207H20.1093V13.4336H17.8823V11.207H15.6552V8.98047H17.8823V6.75391H20.1093V8.98047H22.3363V11.207Z" fill="url(#paint0_linear_18_280)"/>
<path d="M36.6638 10.1826C34.3921 10.1826 33.8057 20.7365 33.7611 20.9593C33.5349 22.5057 32.4453 24.7949 30.6052 26.1733L25.7821 29.6744L24.4468 27.8914L29.2698 24.3914C31.1804 22.9592 32.0512 20.5139 29.6634 20.5139C27.5248 20.5139 23.5274 22.9893 22.3423 23.9713C20.9271 25.1439 20.1094 26.8863 20.1094 28.7239V37.9999H26.7905C26.7905 36.9311 27.3695 35.7658 28.2603 34.6525C29.1957 33.4279 30.5319 32.1811 31.9126 30.9119C34.5405 28.4404 37.2649 25.9021 37.6213 23.3194C37.8329 21.5845 38.0086 18.6089 37.9998 15.9569C37.9902 12.987 37.7385 10.2786 36.6638 10.1826Z" fill="url(#paint1_linear_18_280)"/>
<path d="M15.388 23.7647C12.2478 21.6049 9.86499 20.5139 8.32834 20.5139C5.94051 20.5139 6.81128 22.9592 8.72186 24.3914L13.545 27.8914L12.2096 29.6744L7.38652 26.1733C5.54625 24.7949 4.45663 22.5057 4.23044 20.9593C4.18582 20.7365 3.59945 10.1826 1.32779 10.1826C0.0806518 10.2939 -0.0529706 13.9232 0.0139147 17.3967C0.0585297 19.935 0.258889 22.4064 0.370167 23.3194C0.726567 25.9021 3.45098 28.4405 6.07888 30.9119C7.45964 32.1811 8.79579 33.4279 9.73122 34.6525C10.622 35.7658 11.201 36.9311 11.201 37.9999H17.8821V28.7684C17.8823 26.8015 16.9587 24.9488 15.388 23.7647Z" fill="url(#paint2_linear_18_280)"/>
<defs>
<linearGradient id="paint0_linear_18_280" x1="6.74707" y1="0" x2="31.8049" y2="20.5003" gradientUnits="userSpaceOnUse">
<stop stop-color="#0EA1EF"/>
<stop offset="1" stop-color="#064BCA"/>
</linearGradient>
<linearGradient id="paint1_linear_18_280" x1="20.1094" y1="10.1826" x2="45.4177" y2="21.6988" gradientUnits="userSpaceOnUse">
<stop stop-color="#0EA1EF"/>
<stop offset="1" stop-color="#064BCA"/>
</linearGradient>
<linearGradient id="paint2_linear_18_280" x1="0" y1="10.1826" x2="25.3003" y2="21.6895" gradientUnits="userSpaceOnUse">
<stop stop-color="#0EA1EF"/>
<stop offset="1" stop-color="#064BCA"/>
</linearGradient>
</defs>
</svg>
