<svg width="22" height="20" viewBox="0 0 22 20" fill="none" xmlns="http://www.w3.org/2000/svg">
<g clip-path="url(#clip0_18_411)">
<path fill-rule="evenodd" clip-rule="evenodd" d="M22 20H17.1377V12.9692C17.1377 11.1289 16.3771 9.87257 14.7046 9.87257C13.4253 9.87257 12.7139 10.7204 12.3828 11.5374C12.2586 11.8307 12.278 12.2392 12.278 12.6478V20H7.46097C7.46097 20 7.52306 7.54563 7.46097 6.41353H12.278V8.54582C12.5626 7.6135 14.1018 6.2829 16.5582 6.2829C19.6057 6.2829 22 8.23718 22 12.4454V20ZM2.5896 4.7141H2.55856C1.00635 4.7141 0 3.67548 0 2.35896C0 1.01684 1.0361 0 2.61935 0C4.20132 0 5.17403 1.01429 5.20508 2.35513C5.20508 3.67165 4.20131 4.7141 2.5896 4.7141ZM0.554901 6.41353H4.8429V20H0.554901V6.41353Z" fill="white"/>
</g>
<defs>
<clipPath id="clip0_18_411">
<rect width="22" height="20" fill="white"/>
</clipPath>
</defs>
</svg>
