<svg width="43" height="43" viewBox="0 0 43 43" fill="none" xmlns="http://www.w3.org/2000/svg">
<circle opacity="0.5" cx="21.5" cy="21.5" r="21.5" fill="white"/>
<path d="M21.5009 10.4238C19.2546 10.4238 17.1003 11.2794 15.512 12.8024C13.9236 14.3254 13.0313 16.3911 13.0312 18.5449C13.0313 22.8343 20.577 31.9078 20.9004 32.2991C20.9725 32.3853 21.0639 32.4549 21.1679 32.5027C21.2718 32.5505 21.3857 32.5753 21.5009 32.5753C21.6162 32.5753 21.7301 32.5505 21.834 32.5027C21.938 32.4549 22.0294 32.3853 22.1015 32.2991C22.4249 31.9078 29.9706 22.8343 29.9706 18.5449C29.9706 16.3911 29.0783 14.3254 27.4899 12.8024C25.9016 11.2794 23.7472 10.4238 21.5009 10.4238ZM21.5009 20.7597C20.8918 20.7597 20.2963 20.5866 19.7899 20.2621C19.2834 19.9376 18.8886 19.4764 18.6555 18.9367C18.4224 18.3971 18.3614 17.8034 18.4802 17.2305C18.5991 16.6577 18.8924 16.1315 19.3231 15.7185C19.7539 15.3055 20.3026 15.0242 20.9001 14.9103C21.4975 14.7963 22.1168 14.8548 22.6796 15.0783C23.2423 15.3018 23.7234 15.6803 24.0618 16.166C24.4002 16.6516 24.5808 17.2226 24.5808 17.8066C24.5808 18.5898 24.2563 19.341 23.6788 19.8948C23.1012 20.4486 22.3178 20.7597 21.5009 20.7597Z" fill="url(#paint0_linear_31_13)"/>
<defs>
<linearGradient id="paint0_linear_31_13" x1="13.0312" y1="10.4238" x2="35.4059" y2="22.5293" gradientUnits="userSpaceOnUse">
<stop stop-color="#0EA1EF"/>
<stop offset="1" stop-color="#064BCA"/>
</linearGradient>
</defs>
</svg>
